<svg id="BACKGROUND" xmlns="http://www.w3.org/2000/svg" xmlns:xlink="http://www.w3.org/1999/xlink" viewBox="0 0 750 500"><defs><style>.cls-1{fill:url(#linear-gradient);}.cls-2{fill:url(#linear-gradient-2);}.cls-3{fill:url(#linear-gradient-3);}.cls-4{fill:url(#linear-gradient-4);}.cls-5{fill:url(#linear-gradient-5);}.cls-6{fill:url(#linear-gradient-6);}.cls-7{fill:#1e92de;}.cls-8{fill:url(#linear-gradient-7);}.cls-9{fill:url(#linear-gradient-8);}.cls-10{fill:url(#linear-gradient-9);}.cls-11{fill:url(#linear-gradient-10);}.cls-12{fill:url(#linear-gradient-11);}.cls-13{fill:#052c06;}</style><linearGradient id="linear-gradient" x1="380.13" y1="-0.27" x2="376.6" y2="172.04" gradientUnits="userSpaceOnUse"><stop offset="0" stop-color="#4d64ff"/><stop offset="1" stop-color="#99a7ff"/></linearGradient><linearGradient id="linear-gradient-2" x1="543.32" y1="98.34" x2="566.36" y2="207.31" gradientUnits="userSpaceOnUse"><stop offset="0" stop-color="#fffaf2"/><stop offset="0.13" stop-color="#fff6e9" stop-opacity="0.81"/><stop offset="0.31" stop-color="#fff1dd" stop-opacity="0.57"/><stop offset="0.48" stop-color="#ffedd3" stop-opacity="0.36"/><stop offset="0.64" stop-color="#ffeacb" stop-opacity="0.21"/><stop offset="0.78" stop-color="#ffe8c6" stop-opacity="0.09"/><stop offset="0.91" stop-color="#ffe6c2" stop-opacity="0.02"/><stop offset="1" stop-color="#ffe6c1" stop-opacity="0"/></linearGradient><linearGradient id="linear-gradient-3" x1="119.17" y1="94.8" x2="85.48" y2="172.55" gradientUnits="userSpaceOnUse"><stop offset="0" stop-color="#cacfff"/><stop offset="0.13" stop-color="#c1c7ff" stop-opacity="0.81"/><stop offset="0.31" stop-color="#b5beff" stop-opacity="0.57"/><stop offset="0.48" stop-color="#abb6ff" stop-opacity="0.36"/><stop offset="0.64" stop-color="#a3afff" stop-opacity="0.21"/><stop offset="0.78" stop-color="#9eabff" stop-opacity="0.09"/><stop offset="0.91" stop-color="#9aa8ff" stop-opacity="0.02"/><stop offset="1" stop-color="#99a7ff" stop-opacity="0"/></linearGradient><linearGradient id="linear-gradient-4" x1="384.75" y1="161.93" x2="380.56" y2="235.81" gradientUnits="userSpaceOnUse"><stop offset="0" stop-color="#346cff"/><stop offset="1" stop-color="#4d64ff"/></linearGradient><linearGradient id="linear-gradient-5" x1="598.79" y1="212.54" x2="604.11" y2="266.6" gradientUnits="userSpaceOnUse"><stop offset="0" stop-color="#fffaf2"/><stop offset="1" stop-color="#ffe6c1" stop-opacity="0"/></linearGradient><linearGradient id="linear-gradient-6" x1="386.05" y1="234.43" x2="380.94" y2="310.97" gradientUnits="userSpaceOnUse"><stop offset="0" stop-color="#2880e8"/><stop offset="1" stop-color="#346cff"/></linearGradient><linearGradient id="linear-gradient-7" x1="258.55" y1="267.88" x2="238.15" y2="350.55" gradientUnits="userSpaceOnUse"><stop offset="0" stop-color="#cacfff"/><stop offset="0.01" stop-color="#c9cfff" stop-opacity="0.99"/><stop offset="0.38" stop-color="#b5beff" stop-opacity="0.57"/><stop offset="0.68" stop-color="#a6b2ff" stop-opacity="0.26"/><stop offset="0.89" stop-color="#9daaff" stop-opacity="0.07"/><stop offset="1" stop-color="#99a7ff" stop-opacity="0"/></linearGradient><linearGradient id="linear-gradient-8" x1="480.37" y1="367.12" x2="541.67" y2="475.46" gradientUnits="userSpaceOnUse"><stop offset="0" stop-color="#29bf82"/><stop offset="0.88" stop-color="#1f94de"/></linearGradient><linearGradient id="linear-gradient-9" x1="375.86" y1="272.7" x2="374.74" y2="437.75" gradientUnits="userSpaceOnUse"><stop offset="0" stop-color="#119130"/><stop offset="1" stop-color="#29bf82"/></linearGradient><linearGradient id="linear-gradient-10" x1="546.51" y1="345.79" x2="579.49" y2="428.82" gradientUnits="userSpaceOnUse"><stop offset="0" stop-color="#fffaf2"/><stop offset="0.04" stop-color="#fff7ec" stop-opacity="0.87"/><stop offset="0.1" stop-color="#fff4e3" stop-opacity="0.69"/><stop offset="0.17" stop-color="#fff0db" stop-opacity="0.52"/><stop offset="0.24" stop-color="#ffeed4" stop-opacity="0.38"/><stop offset="0.31" stop-color="#ffebce" stop-opacity="0.26"/><stop offset="0.39" stop-color="#ffe9c9" stop-opacity="0.17"/><stop offset="0.49" stop-color="#ffe8c6" stop-opacity="0.09"/><stop offset="0.59" stop-color="#ffe7c3" stop-opacity="0.04"/><stop offset="0.73" stop-color="#ffe6c1" stop-opacity="0.01"/><stop offset="1" stop-color="#ffe6c1" stop-opacity="0"/></linearGradient><linearGradient id="linear-gradient-11" x1="374.81" y1="392.48" x2="377.51" y2="534.17" gradientUnits="userSpaceOnUse"><stop offset="0" stop-color="#0a4a14"/><stop offset="0.21" stop-color="#0b5117"/><stop offset="0.5" stop-color="#0c631e"/><stop offset="0.84" stop-color="#0f812a"/><stop offset="1" stop-color="#119130"/></linearGradient></defs><rect class="cls-1" width="750" height="500"/><path class="cls-2" d="M750,64.63V211.06q-15,.51-30.17,1.06c-63,2.22-128.22,4.36-189.76,1.76-62.18-2.63-125.76-3.37-182.33-29.34,8.83-11.43,27.22-13.84,38.69-5.08,2-6,11.57-8.89,16.38-4.75,3.14-13.18,15.07-25.39,28.26-28.5a37.59,37.59,0,0,1,36.63,12.21c6.05-6,16.82-7.6,24.33-3.64,5.5-9.21,16.92-13.12,25.23-6.32,2.9-14.55,13.89-27.31,28-31.86a42.82,42.82,0,0,1,41.44,9.22c4.62-3.06,12.8-1.7,17,1.87C614,113,638.43,107.35,654.18,115.87c2.23-11.78,13.65-22.07,24.63-26.86a37.63,37.63,0,0,1,34.46,2.57c2.54-9.56,12.85-16.89,21.37-21.91A38.07,38.07,0,0,1,750,64.63Z"/><path class="cls-3" d="M220.87,160.92C148.71,179.26,74.21,196.37,0,193V69c10.12,3.5,18.87,11.12,23,21,7.71-2.63,16,1.31,21.81,7,7-5.21,17.57-5.9,26.15-4.11a31.63,31.63,0,0,1,20.64,15c4.45-1.33,11.43,2.75,12.53,7.26,8.08-7.71,20.8-10.31,31.68-7.78A34.48,34.48,0,0,1,160,128.71a11.39,11.39,0,0,1,15.93,11.68c7.86-3.64,20-1.47,27.92,2A31.34,31.34,0,0,1,220.87,160.92Z"/><path class="cls-4" d="M750,188V500H0V167.22c22.07-15.06,43.8-31,70.12-38,45.18-12,84,21.18,127.64,27,21.73,2.92,43.32-6.42,65.26-6.23,38.28.33,70,28.86,107.63,35.68,39.89,7.24,79.43-10.67,116.65-26s67.29-25.41,104.28-9.53c32.45,13.94,67.15,45,102.27,50.77C710.88,203.68,731.49,191.39,750,188Z"/><path class="cls-5" d="M750,200.77V304.41l-34.64.39-259.57,3V257c13.18-12.17,34.8-13.94,49.78-4.06,3.7-7.13,14.61-10.25,21.67-6.42C531.51,234,543.55,226,556.77,225a34.89,34.89,0,0,1,32.79,18.31c6.79-3.46,17.55.87,22.65,6.53,10.2-6,27.45-2,32.84,8.47,3-7.85,10.53-13.44,18.51-16.11A29.1,29.1,0,0,1,687.84,245c1.25-7.88,13-15.24,20.27-11.87,1.41-7.7,5.81-15.24,11.72-21a40.65,40.65,0,0,1,12.56-8.54A38.58,38.58,0,0,1,750,200.77Z"/><path class="cls-6" d="M750,313V500H0V300.21l169.33-82L172,217l5-2.43c21.56-10.33,44.36-20.21,67.93-21.13l.82-3.56.81,3.5a85.13,85.13,0,0,1,11.37.5,96.47,96.47,0,0,1,17.49,3.71l1.66-7.24,1.93,8.39.64.21.83-3.61,1,4.25c12.64,4.5,24.81,10.73,37.2,16.14l.88-3.83,1.08,4.67c11.37,4.87,22.95,8.93,35.28,10.23a103.64,103.64,0,0,0,14.55.42l1.3-5.64,1.27,5.53.67,0,1.26-5.49,1.23,5.33c12.85-.9,25.8-3.08,38.36-3.45l1.06-4.6.63,2.76,2.32-10.06,2.27,9.87L422,216.5l1.6,7h-.86c.78,0,1.56.08,2.34.13l1-4.38,1.05,4.55A63.9,63.9,0,0,1,441,226.61l1.17-5.08,1.38,6,1.3.53.53-2.28.64,2.77c10.25,4.54,18.59,12.2,27.26,19.23,2.67,2.17,5.37,4.27,8.17,6.21l.21-.93.29,1.28c1.07.72,2.15,1.42,3.24,2.09l1.22-5.3,1,4.45.75-3.28,1.53,6.65c.58.29,1.17.57,1.76.84l.75-3.25.91,4c.81.33,1.62.64,2.46.93l1.12-4.9L498,262.2l.83.24.55-2.43.63,2.72c14.19,3.43,28.92.24,43.81-2.9l1.29-5.58,1.16,5.06,1.83-.37,1.37-6,1.26,5.46c8.28-1.64,16.58-3,24.85-2.77a80.22,80.22,0,0,1,27.3,5.69l.66-2.87.64,2.77,1-4.19,1.32,5.74q4.53,1.94,8.94,4.24l.82-3.53,1,4.51c15.32,8.22,29.85,19.15,45,28.35a178.4,178.4,0,0,0,16.25,8.87A93.91,93.91,0,0,0,707.41,314c2.23.27,4.49.44,6.76.54a201.61,201.61,0,0,0,23.5-.75C741.8,313.5,745.92,313.2,750,313Z"/><path class="cls-7" d="M682.56,351.7A523.6,523.6,0,0,1,524.85,342q-7.43-1.6-14.78-3.45c-42.3-10.54-82.73-26.28-122.71-43.34l-.49-2.11-.4,1.73q-4.82-2.05-9.62-4.14l-1.05-4.55-.86,3.72-.37-.16L374.2,288l-.31,1.35c-35.42-15.37-70.62-31.44-106.57-45.51l-.57-2.49-.48,2.07-1-.4-1.19-5.15-1,4.31-2.75-1.06-.75-3.25-.63,2.73-2-.76-1.43-6.21-.75,3.28-1-4.45-1.31,5.69-2.82-1L249,234.4l-.52,2.29c-12-4.41-24.3-8.53-36.75-12.26l-1-4.45-.89,3.86c-2.06-.61-4.12-1.19-6.18-1.77l-1.46-6.34-.76,3.28-1-4.44L199,220.74c-2.48-.68-5-1.33-7.44-2L191,216.5l-.46,2-1.41-.37-1.53-6.62-1.36,5.91q-4.51-1.14-9.05-2.19l-1.31-5.69-1.18,5.12c-1.8-.4-3.58-.82-5.38-1.21Q158,211,146.62,209.13l-1-4.37-.94,4.06-1.39-.23-.88-3.83-.82,3.57c-1.66-.26-3.33-.5-5-.74l-.9-3.9-.84,3.66c-33.71-4.62-67.58-5.17-100.29.17l-.9-3.93-1,4.24-2.61.46-.78-3.4-.85,3.7c-1.29.24-2.58.49-3.86.75l-.22-1-.25,1.07c-1.62.33-3.25.67-4.87,1l-1.11-4.83L17,210.53l-2.27-9.87-2.66,11.53C8,213.22,4,214.34,0,215.58V500H750V341.2A521,521,0,0,1,682.56,351.7Z"/><path class="cls-8" d="M492.9,378.79c-2.9-8.53-10.35-15.22-18.73-18.81-9.29-4-18.78-2.48-28.88-2.59-5.9-10.4-16.53-17.63-28.13-20.54a30.28,30.28,0,0,0-21.19-12c-8.31-.79-16.42,3.29-22.57,9a38.29,38.29,0,0,0-28.72-10.16c-10.42.78-21.57,4.71-28,12.92-5.8-6.4-14.88-8.25-21.53-2.74A59.63,59.63,0,0,0,257.7,309c-15.08-3-34.63.33-47.43,8.84-6-9.67-21.07-12-29.63-4.55a46.22,46.22,0,0,0-25.31-24.13,48.89,48.89,0,0,0-36,.76c-2.85-9.15-13.36-16.58-22.8-15-12.76-12.08-33.18-13-49.17-5.69A81.09,81.09,0,0,0,0,255.06V378.79Z"/><path class="cls-9" d="M750,234.63V500H211c31.72-12.79,56.15-39.95,83-62.95q3.22-2.76,6.51-5.45c15.39-12.54,31.79-23.28,50.94-28.87,33.45-9.76,70.58-2.17,103.8-12.61,23.74-7.45,42.78-23.15,61.81-39,2.61-2.17,5.23-4.36,7.86-6.52l2.55-2.09c14.63-11.94,29.76-23.1,47.45-29.88a142.19,142.19,0,0,1,23.23-6.47c21.19-4.21,43.65-5.22,64.2-9.8,14.68-3.26,28.38-8.35,40-17.76s19.41-22,30.07-32.13A59.62,59.62,0,0,1,750,234.63Z"/><path class="cls-10" d="M743.75,442.59l-127.6-52.95L595.29,381q-6.12-2.55-12.3-5.08l-1.77-7.7-1.47,6.38-1.61-.66L575,360.14l-2.64,11.44c-1.89-.76-3.78-1.53-5.69-2.28l-2.1-9.16-1.76,7.63-3.94-1.54-3.67-16-1.76,7.61L551,347.58,547.73,362c-2.17-.82-4.36-1.62-6.54-2.42L540,354.4l-1,4.34c-7.3-2.66-14.64-5.22-22-7.63-19.95-6.51-38.37-11.3-56.51-14l-1-4.11-.88,3.84c-5.4-.77-10.78-1.35-16.17-1.74l-2.75-11.95L438,330.74l-2.38-10.32-3.26,14.16c-5.37-.14-10.77-.1-16.25.16l-2.26-9.84L411.5,335l-.55,0-5-21.73L400.72,336c-2.07.24-4.16.5-6.26.8l-1.29-5.6-1.38,6c-5.49.83-11.07,1.86-16.79,3.1C322.75,351.68,271.7,371,219,361.67l-.81-.15-1.35-5.86L215.58,361a131.39,131.39,0,0,1-21-6.33l-3.49-15.19-2.38,10.32L187.4,344l-1.61,7c-29.29-13.41-55.87-34.66-86-48l-1-4.52-.85,3.7a151.86,151.86,0,0,0-18.39-6.63L78,288.57l-1.4,6.1A124.73,124.73,0,0,0,63.75,292l-1.37-5.94-1,4.44L58.26,277,55,291c-1.47-.11-3-.2-4.44-.26l-2.47-10.73L45.67,290.7c-2.73,0-5.51.14-8.32.35l-.68-2.92-.7,3q-5.51.48-11.25,1.51l-2.5-10.86-2.61,11.33-5.27-22.91-6.1,26.48c-2.71.83-5.45,1.75-8.24,2.78V500H750V445.2Z"/><path class="cls-11" d="M750,272V476.83H365.74a43.26,43.26,0,0,1,10.08-19.27,39,39,0,0,1,4.38-4.14,27.06,27.06,0,0,1,9.24-5c5.31-1.58,11.4-1,15.88,2.22.76-5.91,5.8-9.93,11.37-11.1,3.47-.74,13.1-.34,14.89,4.15a4.31,4.31,0,0,1,.19.61c0-.21-.09-.42-.12-.64-1.44-8.27,5.13-16.86,12.77-20.48,7.83-3.7,17-3.3,25.5-1.61,3-4.52,6.68-7.86,11.31-8.55a13.25,13.25,0,0,1,4.82.21c2.71-9.61,12.15-16.32,22-17.8a26.7,26.7,0,0,1,25.81,11.68c8.16-7.75,21.9-8.12,30.35-.7,9.26-18.32,31.64-27.05,51.94-23.86.71.11,1.43.24,2.14.38,0-.47-.1-.95-.14-1.43-.79-9.83,1.9-20.54,8.47-27.78.5-.56,1-1.1,1.58-1.61a35.93,35.93,0,0,1,30.62-8.88c1.26-6.75,7.14-11.88,13.56-14.3a20.58,20.58,0,0,1,15.4.52,19.39,19.39,0,0,1,4.1,2.46,12.85,12.85,0,0,1,.57-1.4c3.54-7.81,13.45-13.82,21.19-10.41.17-1.86.33-3.71.51-5.55.32-3.3.67-6.55,1.19-9.75a51.37,51.37,0,0,1,5.82-17.59C727,277.1,738.64,269.37,750,272Z"/><path class="cls-12" d="M750,307.14V500H0V397c25.12-16,51.12-30.59,79.55-38.91,3.31-1,6.61-1.76,9.9-2.41l5.62-24.44,5.27,22.86c1.59-.15,3.18-.27,4.76-.35l2.75-11.93,2.26,9.83,4.12-17.91,4.65,20.17A127.38,127.38,0,0,1,149.3,360l1.52-6.57,1.77,7.68a185.05,185.05,0,0,1,36.62,18.07c15.45,9.72,31.26,21.34,46.57,32.19,14.61,10.35,29.42,23.17,48.34,22.73a60.15,60.15,0,0,0,9.81-1.11c2.18-.41,4.34-.89,6.51-1.41,9.84-2.33,19.59-5.28,29.52-4,7.2.91,13.67,3.89,19.9,7.62l.87-3.77,1.16,5c1.79,1.13,3.57,2.3,5.34,3.49l4.39-19.07,6,25.95A87.7,87.7,0,0,0,377,452c1.05.49,2.12.95,3.19,1.38,25.31,10.14,54.49,2.83,80.67-5.7q20.19-6.57,40.08-14l5.67-24.6,4.75,20.65,3.13-1.22,2.18-9.48L518.5,427a1023.74,1023.74,0,0,0,97.65-44.45h0l2-1.05q20.75-10.83,41-22.63l1.3-5.66.77-3.34.75,3.26.83,3.6c2.27-1.33,4.54-2.68,6.8-4s4.59-2.76,6.88-4.16l6.1-3.72,2-1.21,3.26-14.16,2.21-9.61,2.46,10.67,1.68,7.3c2.92-1.73,5.86-3.45,8.82-5.11l1.68-7.29,1.29,5.63a193.32,193.32,0,0,1,31-14.11l.72-3.13,2.13-9.28.06-.24.06.24,1.59,6.92,1.6-6.95,3.14-13.63L750,304.42Z"/><path class="cls-13" d="M724.07,447.91,713.3,429.05l-7.2,22.45L700.82,439l-5.69,18.45-2.09.09-7.22-31.63-3.43,21.75-7.09-31.06-6.62,42h-.09l-3.71-13.83-3.56,14.2q-14.7.75-29.44,1.67l-5.49-15.7L623.31,456l-5.38-19.61-3.85,24.4-3.6-10.71L607,462.26l-10.68.77-2-9-1.93,9.26-4.28.33-4.31-18.9-3.86,19.54q-5,.39-10,.81l-2.68-7.78-2.63,8.22q-21.42,1.81-42.7,3.9l-5.08-15.71-4,14.55-7.19-18.81-6.89,22.33-8.25.87-3.18-13.95-2.3,14.55-2.7.29-5.52-24.15-4,25.21q-17.26,2-34.27,4.05l-6.34-14.41-4.07,13.38-2.93-9.12-2.69,12.17q-21.42,2.74-42.29,5.7l-7.3-27.17L366.2,488.4l-8.94,1.32L355.73,483l-1.92,7.25q-7.71,1.15-15.31,2.33l-10.25-33.23-11.11,29.09-6.24-22.5-8.83,27.34q-12.17-1.86-24-3.58l-8.65-27-8.48,24.57L252.3,486l-8.47-42.8-9.22,40.4-1.68-.22-5.36-25.78L222,482q-5.62-.74-11.16-1.43l-8.39-29-5.57,16.57-5.95-37.74-8.32,30.33-4.76-17.22-10.71,30.62-9.26.21q-16.86-1.86-32.62-3.42l-6.94-27.67-5.73,21.4-10.38-65L91.44,448.85,86,414,74,466.19l-1.47-.12-9.82-31.82-8.16,19.39L43.45,418.92,26.8,448.09,6.38,357.33,0,379.09V500H750V432.22c-5.66-19.58-12.73-43-12.73-43Z"/></svg>