<?xml version="1.0" encoding="utf-8"?>
<!-- Generator: Adobe Illustrator 25.2.1, SVG Export Plug-In . SVG Version: 6.00 Build 0)  -->
<svg version="1.1" xmlns="http://www.w3.org/2000/svg" xmlns:xlink="http://www.w3.org/1999/xlink" x="0px" y="0px"
	 viewBox="0 0 750 500" style="enable-background:new 0 0 750 500;" xml:space="preserve">
<style type="text/css">
	.st0{fill:url(#SVGID_1_);}
	.st1{fill:url(#SVGID_2_);}
	.st2{fill:url(#SVGID_3_);}
	.st3{fill:url(#SVGID_4_);}
	.st4{fill:url(#SVGID_5_);}
	.st5{fill:#169445;}
	.st6{fill:url(#SVGID_6_);}
	.st7{fill:url(#SVGID_7_);}
	.st8{fill:url(#SVGID_8_);}
	.st9{fill:url(#SVGID_9_);}
	.st10{fill:url(#SVGID_10_);}
	.st11{fill:#252B06;}
</style>
<g id="BACKGROUND">
	<linearGradient id="SVGID_1_" gradientUnits="userSpaceOnUse" x1="543.3232" y1="98.3422" x2="566.3567" y2="207.3081">
		<stop  offset="0" style="stop-color:#9BC1C0"/>
		<stop  offset="5.449222e-02" style="stop-color:#96BEBD;stop-opacity:0.9454"/>
		<stop  offset="0.4305" style="stop-color:#7AADAA;stop-opacity:0.5684"/>
		<stop  offset="0.7577" style="stop-color:#68A39E;stop-opacity:0.2404"/>
		<stop  offset="0.9975" style="stop-color:#629F9A;stop-opacity:0"/>
	</linearGradient>
	<path class="st0" d="M750,64.6v146.4c-10,0.3-20,0.7-30.2,1.1c-63,2.2-128.2,4.4-189.8,1.8c-62.2-2.6-125.8-3.4-182.3-29.3
		c8.8-11.4,27.2-13.8,38.7-5.1c2-6,11.6-8.9,16.4-4.8c3.1-13.2,15.1-25.4,28.3-28.5c13.2-3.1,27.9,1.8,36.6,12.2
		c6-6,16.8-7.6,24.3-3.6c5.5-9.2,16.9-13.1,25.2-6.3c2.9-14.6,13.9-27.3,28-31.9c14.1-4.6,30.6-0.9,41.4,9.2
		c4.6-3.1,12.8-1.7,17,1.9c10.2-14.7,34.7-20.3,50.4-11.8c2.2-11.8,13.6-22.1,24.6-26.9c11-4.8,24.3-3.8,34.5,2.6
		c2.5-9.6,12.9-16.9,21.4-21.9C739.3,66.9,744.6,65.2,750,64.6z"/>
	<linearGradient id="SVGID_2_" gradientUnits="userSpaceOnUse" x1="119.1742" y1="94.7972" x2="85.4822" y2="172.5479">
		<stop  offset="0" style="stop-color:#9BC1C0"/>
		<stop  offset="5.449222e-02" style="stop-color:#96BEBD;stop-opacity:0.9454"/>
		<stop  offset="0.4305" style="stop-color:#7AADAA;stop-opacity:0.5684"/>
		<stop  offset="0.7577" style="stop-color:#68A39E;stop-opacity:0.2404"/>
		<stop  offset="0.9975" style="stop-color:#629F9A;stop-opacity:0"/>
	</linearGradient>
	<path class="st1" d="M220.9,160.9C148.7,179.3,74.2,196.4,0,193V69c10.1,3.5,18.9,11.1,23,21c7.7-2.6,16,1.3,21.8,7
		c7.1-5.2,17.6-5.9,26.1-4.1c8.6,1.8,16.3,7.4,20.6,15c4.4-1.3,11.4,2.8,12.5,7.3c8.1-7.7,20.8-10.3,31.7-7.8
		c10.9,2.5,20.2,10.8,24.1,21.3c3.6-1.6,8.1-1.1,11.3,1.2c3.2,2.4,5,6.5,4.6,10.4c7.9-3.6,20-1.5,27.9,2
		C211.8,145.8,218.1,152.7,220.9,160.9z"/>
	<g>
		<linearGradient id="SVGID_3_" gradientUnits="userSpaceOnUse" x1="384.7547" y1="161.9252" x2="380.5567" y2="235.8105">
			<stop  offset="0" style="stop-color:#2AC395"/>
			<stop  offset="1" style="stop-color:#47E1D7"/>
		</linearGradient>
		<path class="st2" d="M750,187.9v312H0V167.2c22.1-15.1,43.8-31,70.1-38c45.2-12,84,21.2,127.6,27c21.7,2.9,43.3-6.4,65.3-6.2
			c38.3,0.3,70,28.9,107.6,35.7c39.9,7.2,79.4-10.7,116.6-26.1c37.2-15.4,67.3-25.4,104.3-9.5c32.5,13.9,67.1,45,102.3,50.8
			C710.9,203.7,731.5,191.4,750,187.9z"/>
	</g>
	<linearGradient id="SVGID_4_" gradientUnits="userSpaceOnUse" x1="598.7899" y1="212.5356" x2="604.1074" y2="266.5967">
		<stop  offset="0" style="stop-color:#9BC1C0"/>
		<stop  offset="0.9975" style="stop-color:#629F9A;stop-opacity:0"/>
	</linearGradient>
	<path class="st3" d="M750,200.8v103.6l-34.6,0.4l-259.6,3V257c13.2-12.2,34.8-13.9,49.8-4.1c3.7-7.1,14.6-10.2,21.7-6.4
		c4.3-12.6,16.3-20.5,29.5-21.5c13.2-1,26.7,6.5,32.8,18.3c6.8-3.5,17.5,0.9,22.6,6.5c10.2-6,27.5-2,32.8,8.5
		c3-7.9,10.5-13.4,18.5-16.1c8-2.7,17.1-1.6,24.3,2.9c1.2-7.9,13-15.2,20.3-11.9c1.4-7.7,5.8-15.2,11.7-21.1c3.7-3.7,8-6.6,12.6-8.5
		C737.9,201.3,744,200.3,750,200.8z"/>
	<linearGradient id="SVGID_5_" gradientUnits="userSpaceOnUse" x1="386.0452" y1="234.4279" x2="380.9421" y2="310.9745">
		<stop  offset="0" style="stop-color:#1E9D5F"/>
		<stop  offset="1" style="stop-color:#2AC395"/>
	</linearGradient>
	<path class="st4" d="M750,313v187H0V300.2c56.4-27.3,112.9-54.6,169.3-82c0.9-0.4,1.8-0.9,2.7-1.3c1.7-0.8,3.4-1.6,5-2.4
		c21.6-10.3,44.4-20.2,67.9-21.1l0.8-3.6l0.8,3.5c3.8-0.1,7.6,0.1,11.4,0.5c6,0.7,11.8,2,17.5,3.7l1.7-7.2l1.9,8.4
		c0.2,0.1,0.4,0.1,0.6,0.2l0.8-3.6l1,4.2c12.6,4.5,24.8,10.7,37.2,16.1l0.9-3.8l1.1,4.7c11.4,4.9,22.9,8.9,35.3,10.2
		c4.8,0.5,9.7,0.6,14.5,0.4l1.3-5.6l1.3,5.5c0.2,0,0.4,0,0.7,0l1.3-5.5l1.2,5.3c12.9-0.9,25.8-3.1,38.4-3.4l1.1-4.6l0.6,2.8
		l2.3-10.1l2.3,9.9l1.1-4.9l1.6,7h-0.9c0.8,0,1.6,0.1,2.3,0.1l1-4.4l1.1,4.5c4.7,0.5,9.4,1.4,13.9,2.9l1.2-5.1l1.4,6
		c0.4,0.2,0.9,0.3,1.3,0.5l0.5-2.3l0.6,2.8c10.2,4.5,18.6,12.2,27.3,19.2c2.7,2.2,5.4,4.3,8.2,6.2l0.2-0.9l0.3,1.3
		c1.1,0.7,2.1,1.4,3.2,2.1l1.2-5.3l1,4.5l0.8-3.3l1.5,6.7c0.6,0.3,1.2,0.6,1.8,0.8l0.8-3.2l0.9,4c0.8,0.3,1.6,0.6,2.5,0.9l1.1-4.9
		l1.3,5.7c0.3,0.1,0.5,0.2,0.8,0.2l0.6-2.4l0.6,2.7c14.2,3.4,28.9,0.2,43.8-2.9l1.3-5.6l1.2,5.1c0.6-0.1,1.2-0.2,1.8-0.4l1.4-6
		l1.3,5.5c8.3-1.6,16.6-2.9,24.8-2.8c9.6,0.2,18.6,2.3,27.3,5.7l0.7-2.9l0.6,2.8l1-4.2l1.3,5.7c3,1.3,6,2.7,8.9,4.2l0.8-3.5l1,4.5
		c15.3,8.2,29.8,19.1,45,28.4c5.3,3.2,10.7,6.2,16.2,8.9c9.2,4.3,18.7,7.5,28.9,8.8c2.2,0.3,4.5,0.4,6.8,0.5
		c7.7,0.4,15.6-0.2,23.5-0.8C741.8,313.5,745.9,313.2,750,313z"/>
	<path class="st5" d="M682.6,351.7c-52.7,4.7-106.1,1.5-157.7-9.8c-5-1.1-9.9-2.2-14.8-3.4c-42.3-10.5-82.7-26.3-122.7-43.3
		l-0.5-2.1l-0.4,1.7c-3.2-1.4-6.4-2.8-9.6-4.1l-1-4.6l-0.9,3.7c-0.1-0.1-0.2-0.1-0.4-0.2l-0.4-1.6l-0.3,1.3
		c-35.4-15.4-70.6-31.4-106.6-45.5l-0.6-2.5l-0.5,2.1c-0.3-0.1-0.7-0.3-1-0.4l-1.2-5.1l-1,4.3c-0.9-0.4-1.8-0.7-2.8-1.1l-0.7-3.3
		l-0.6,2.7c-0.7-0.3-1.3-0.5-2-0.8l-1.4-6.2l-0.8,3.3l-1-4.4l-1.3,5.7c-0.9-0.3-1.9-0.7-2.8-1.1l-0.6-2.7l-0.5,2.3
		c-12-4.4-24.3-8.5-36.7-12.3l-1-4.5l-0.9,3.9c-2.1-0.6-4.1-1.2-6.2-1.8l-1.5-6.3l-0.8,3.3l-1-4.4l-1.4,6.2c-2.5-0.7-5-1.3-7.4-2
		l-0.5-2.3l-0.5,2c-0.5-0.1-0.9-0.2-1.4-0.4l-1.5-6.6l-1.4,5.9c-3-0.8-6-1.5-9.1-2.2l-1.3-5.7l-1.2,5.1c-1.8-0.4-3.6-0.8-5.4-1.2
		c-7.5-1.6-15.1-3.1-22.7-4.3l-1-4.4l-0.9,4.1c-0.5-0.1-0.9-0.2-1.4-0.2l-0.9-3.8l-0.8,3.6c-1.7-0.3-3.3-0.5-5-0.7l-0.9-3.9
		l-0.8,3.7c-33.7-4.6-67.6-5.2-100.3,0.2l-0.9-3.9l-1,4.2c-0.9,0.1-1.7,0.3-2.6,0.5l-0.8-3.4l-0.9,3.7c-1.3,0.2-2.6,0.5-3.9,0.7
		l-0.2-1l-0.2,1.1c-1.6,0.3-3.2,0.7-4.9,1l-1.1-4.8l-1.1,4.9l-2.3-9.9l-2.7,11.5c-4.1,1-8.1,2.1-12.1,3.4V500h750V341.2
		C727.8,346.2,705.3,349.7,682.6,351.7z"/>
	<linearGradient id="SVGID_6_" gradientUnits="userSpaceOnUse" x1="258.5517" y1="267.877" x2="238.1525" y2="350.5477">
		<stop  offset="0" style="stop-color:#9BC1C0"/>
		<stop  offset="0.6183" style="stop-color:#75AAA6;stop-opacity:0.3802"/>
		<stop  offset="0.9975" style="stop-color:#629F9A;stop-opacity:0"/>
	</linearGradient>
	<path class="st6" d="M492.9,378.8c-2.9-8.5-10.3-15.2-18.7-18.8c-9.3-4-18.8-2.5-28.9-2.6c-5.9-10.4-16.5-17.6-28.1-20.5
		c-5-6.7-12.9-11.2-21.2-11.9c-8.3-0.8-16.4,3.3-22.6,8.9c-7.6-7.2-18.3-10.9-28.7-10.2c-10.4,0.8-21.6,4.7-28,12.9
		c-5.8-6.4-14.9-8.2-21.5-2.7c-8.6-12.8-22.3-21.9-37.4-24.9c-15.1-3-34.6,0.3-47.4,8.8c-6-9.7-21.1-12-29.6-4.5
		c-4.8-10.9-14.2-19.8-25.3-24.1c-11.1-4.3-25.1-4.1-36,0.8c-2.9-9.1-13.4-16.6-22.8-15c-12.8-12.1-33.2-13-49.2-5.7
		c-13.8-9.6-30.6-14.4-47.4-14.2v123.7H492.9z"/>
	<linearGradient id="SVGID_7_" gradientUnits="userSpaceOnUse" x1="480.3747" y1="367.12" x2="541.6715" y2="475.4588">
		<stop  offset="0" style="stop-color:#5ABE2B"/>
		<stop  offset="0.879" style="stop-color:#21D763"/>
	</linearGradient>
	<path class="st7" d="M750,234.6V500H211c31.7-12.8,56.1-40,83-63c2.1-1.8,4.3-3.7,6.5-5.4c15.4-12.5,31.8-23.3,50.9-28.9
		c33.4-9.8,70.6-2.2,103.8-12.6c23.7-7.4,42.8-23.1,61.8-39c2.6-2.2,5.2-4.4,7.9-6.5c0.9-0.7,1.7-1.4,2.6-2.1
		c14.6-11.9,29.8-23.1,47.4-29.9c7.5-2.9,15.2-4.9,23.2-6.5c21.2-4.2,43.6-5.2,64.2-9.8c14.7-3.3,28.4-8.4,39.9-17.8
		c11.5-9.3,19.4-22,30.1-32.1C737.3,241.7,743.4,237.4,750,234.6z"/>
	<linearGradient id="SVGID_8_" gradientUnits="userSpaceOnUse" x1="375.8644" y1="272.7011" x2="374.7415" y2="437.7542">
		<stop  offset="0" style="stop-color:#609013"/>
		<stop  offset="1" style="stop-color:#5ABE2B"/>
	</linearGradient>
	<path class="st8" d="M743.8,442.6c-42.5-17.7-85.1-35.3-127.6-52.9c-7-2.9-13.9-5.8-20.9-8.7c-4.1-1.7-8.2-3.4-12.3-5.1l-1.8-7.7
		l-1.5,6.4c-0.5-0.2-1.1-0.4-1.6-0.7l-3.2-13.8l-2.6,11.4c-1.9-0.8-3.8-1.5-5.7-2.3l-2.1-9.2l-1.8,7.6c-1.3-0.5-2.6-1-3.9-1.5
		l-3.7-15.9l-1.8,7.6l-2.4-10.3l-3.3,14.4c-2.2-0.8-4.4-1.6-6.5-2.4l-1.2-5.1l-1,4.3c-7.3-2.7-14.6-5.2-22-7.6
		c-20-6.5-38.4-11.3-56.5-14l-0.9-4.1l-0.9,3.8c-5.4-0.8-10.8-1.4-16.2-1.7l-2.8-11.9l-1.8,7.6l-2.4-10.3l-3.3,14.2
		c-5.4-0.1-10.8-0.1-16.2,0.2l-2.3-9.8l-2.3,10.1c-0.2,0-0.4,0-0.6,0l-5-21.7l-5.2,22.7c-2.1,0.2-4.2,0.5-6.3,0.8l-1.3-5.6l-1.4,6
		c-5.5,0.8-11.1,1.9-16.8,3.1c-52.2,11.4-103.3,30.6-156,21.4c-0.3,0-0.5-0.1-0.8-0.2l-1.3-5.9l-1.2,5.4c-7.2-1.5-14.2-3.7-21-6.3
		l-3.5-15.2l-2.4,10.3l-1.3-5.8l-1.6,7c-29.3-13.4-55.9-34.7-86-48l-1-4.5l-0.9,3.7c-6-2.6-12.1-4.8-18.4-6.6l-1.6-6.9l-1.4,6.1
		c-4.2-1.1-8.4-2-12.8-2.6l-1.4-5.9l-1,4.4L58.3,277L55,291c-1.5-0.1-2.9-0.2-4.4-0.3L48.1,280l-2.5,10.7c-2.7,0-5.5,0.1-8.3,0.3
		l-0.7-2.9l-0.7,3c-3.7,0.3-7.4,0.8-11.3,1.5l-2.5-10.9l-2.6,11.3l-5.3-22.9l-6.1,26.5c-2.7,0.8-5.5,1.8-8.2,2.8V500h750v-54.8
		C747.9,444.3,745.8,443.4,743.8,442.6z"/>
	<linearGradient id="SVGID_9_" gradientUnits="userSpaceOnUse" x1="546.5051" y1="345.792" x2="579.4896" y2="428.8216">
		<stop  offset="0" style="stop-color:#9BC1C0"/>
		<stop  offset="8.031538e-02" style="stop-color:#8CB8B6;stop-opacity:0.9195"/>
		<stop  offset="0.2202" style="stop-color:#79ADAA;stop-opacity:0.7793"/>
		<stop  offset="0.3841" style="stop-color:#6CA5A1;stop-opacity:0.6149"/>
		<stop  offset="0.5929" style="stop-color:#64A09C;stop-opacity:0.4057"/>
		<stop  offset="0.9975" style="stop-color:#629F9A;stop-opacity:0"/>
	</linearGradient>
	<path class="st9" d="M750,272v204.9H365.7c1-4.4,2.7-8.6,5.1-12.5c1.5-2.4,3.1-4.7,5-6.8c1.4-1.5,2.8-2.9,4.4-4.1
		c2.8-2.2,5.8-4,9.2-5c5.3-1.6,11.4-1,15.9,2.2c0.8-5.9,5.8-9.9,11.4-11.1c3.5-0.7,13.1-0.3,14.9,4.1c0.1,0.2,0.1,0.4,0.2,0.6
		c0-0.2-0.1-0.4-0.1-0.6c-1.4-8.3,5.1-16.9,12.8-20.5c7.8-3.7,17-3.3,25.5-1.6c3-4.5,6.7-7.9,11.3-8.6c1.5-0.2,3.1-0.2,4.8,0.2
		c2.7-9.6,12.2-16.3,22-17.8c9.9-1.5,20.4,3.3,25.8,11.7c8.2-7.8,21.9-8.1,30.3-0.7c9.3-18.3,31.6-27.1,51.9-23.9
		c0.7,0.1,1.4,0.2,2.1,0.4c0-0.5-0.1-0.9-0.1-1.4c-0.8-9.8,1.9-20.5,8.5-27.8c0.5-0.6,1-1.1,1.6-1.6c8.1-7.5,19.8-10.9,30.6-8.9
		c1.3-6.8,7.1-11.9,13.6-14.3c4.9-1.9,10.6-1.6,15.4,0.5c1.5,0.6,2.8,1.5,4.1,2.5c0.2-0.5,0.3-0.9,0.6-1.4
		c3.5-7.8,13.5-13.8,21.2-10.4c0.2-1.9,0.3-3.7,0.5-5.6c0.3-3.3,0.7-6.5,1.2-9.8c1-6.1,2.6-12,5.8-17.6
		C727,277.1,738.6,269.4,750,272z"/>
	<linearGradient id="SVGID_10_" gradientUnits="userSpaceOnUse" x1="374.8146" y1="392.4767" x2="377.5134" y2="534.1668">
		<stop  offset="0" style="stop-color:#36490B"/>
		<stop  offset="0.2084" style="stop-color:#3A500C"/>
		<stop  offset="0.5016" style="stop-color:#45620E"/>
		<stop  offset="0.8435" style="stop-color:#568011"/>
		<stop  offset="1" style="stop-color:#609013"/>
	</linearGradient>
	<path class="st10" d="M750,307.1V500H0V397c25.1-16,51.1-30.6,79.6-38.9c3.3-1,6.6-1.8,9.9-2.4l5.6-24.4l5.3,22.9
		c1.6-0.1,3.2-0.3,4.8-0.4l2.8-11.9l2.3,9.8l4.1-17.9l4.6,20.2c10.3,0.8,20.5,2.9,30.4,6.1l1.5-6.6l1.8,7.7
		c12.6,4.5,24.9,10.7,36.6,18.1c15.4,9.7,31.3,21.3,46.6,32.2c14.6,10.3,29.4,23.2,48.3,22.7c3.3-0.1,6.6-0.5,9.8-1.1
		c2.2-0.4,4.3-0.9,6.5-1.4c9.8-2.3,19.6-5.3,29.5-4c7.2,0.9,13.7,3.9,19.9,7.6l0.9-3.8l1.2,5c1.8,1.1,3.6,2.3,5.3,3.5l4.4-19.1l6,26
		c3.1,1.9,6.2,3.7,9.4,5.2c1,0.5,2.1,0.9,3.2,1.4c25.3,10.1,54.5,2.8,80.7-5.7c13.5-4.4,26.8-9,40.1-14l5.7-24.6l4.8,20.6
		c1-0.4,2.1-0.8,3.1-1.2l2.2-9.5l1.8,7.9c33.3-13.1,65.9-27.9,97.7-44.5c0,0,0,0,0,0c0.7-0.3,1.3-0.7,2-1
		c13.8-7.2,27.5-14.8,41-22.6l1.3-5.7l0.8-3.3l0.8,3.3l0.8,3.6c2.3-1.3,4.5-2.7,6.8-4c2.3-1.4,4.6-2.8,6.9-4.2
		c2-1.2,4.1-2.5,6.1-3.7c0.7-0.4,1.3-0.8,2-1.2l3.3-14.2l2.2-9.6l2.5,10.7l1.7,7.3c2.9-1.7,5.9-3.5,8.8-5.1l1.7-7.3l1.3,5.6
		c10.1-5.6,20.4-10.5,31-14.1l0.7-3.1l2.1-9.3l0.1-0.2l0.1,0.2l1.6,6.9l1.6-7l3.1-13.6l3.8,13.6V307.1z"/>
	<path class="st11" d="M724.1,447.9L713.3,429l-7.2,22.5l-5.3-12.5l-5.7,18.5c-0.7,0-1.4,0.1-2.1,0.1l-7.2-31.6l-3.4,21.7l-7.1-31.1
		l-6.6,42c0,0-0.1,0-0.1,0l-3.7-13.8l-3.6,14.2c-9.8,0.5-19.6,1.1-29.4,1.7l-5.5-15.7l-3.1,11.1l-5.4-19.6l-3.8,24.4l-3.6-10.7
		l-3.5,12.1c-3.6,0.3-7.1,0.5-10.7,0.8l-2-9l-1.9,9.3c-1.4,0.1-2.9,0.2-4.3,0.3l-4.3-18.9l-3.9,19.5c-3.3,0.3-6.7,0.5-10,0.8
		l-2.7-7.8l-2.6,8.2c-14.3,1.2-28.5,2.5-42.7,3.9l-5.1-15.7l-4,14.5l-7.2-18.8l-6.9,22.3c-2.8,0.3-5.5,0.6-8.3,0.9l-3.2-14
		l-2.3,14.6c-0.9,0.1-1.8,0.2-2.7,0.3l-5.5-24.2l-4,25.2c-11.5,1.3-22.9,2.7-34.3,4l-6.3-14.4l-4.1,13.4l-2.9-9.1l-2.7,12.2
		c-14.3,1.8-28.4,3.7-42.3,5.7l-7.3-27.2l-6.7,29.2c-3,0.4-6,0.9-8.9,1.3l-1.5-6.7l-1.9,7.3c-5.1,0.8-10.2,1.5-15.3,2.3l-10.3-33.2
		l-11.1,29.1l-6.2-22.5l-8.8,27.3c-8.1-1.2-16.1-2.4-24-3.6l-8.6-27l-8.5,24.6c-2.9-0.4-5.8-0.8-8.6-1.2l-8.5-42.8l-9.2,40.4
		c-0.6-0.1-1.1-0.1-1.7-0.2l-5.4-25.8L222,482c-3.7-0.5-7.5-1-11.2-1.4l-8.4-29l-5.6,16.6l-5.9-37.7l-8.3,30.3l-4.8-17.2l-10.7,30.6
		l-9.3,0.2c-11.2-1.2-22.1-2.4-32.6-3.4l-6.9-27.7l-5.7,21.4l-10.4-65l-10.8,49.2L86,414L74,466.2c-0.5,0-1-0.1-1.5-0.1l-9.8-31.8
		l-8.2,19.4l-11.1-34.7l-16.7,29.2L6.4,357.3c0,0-2.6,9-6.4,21.8V500h750v-67.8c-5.7-19.6-12.7-43-12.7-43L724.1,447.9z"/>
</g>
<g id="DESIGNED_BY_FREEPIK">
</g>
</svg>
