<?xml version="1.0" encoding="utf-8"?>
<!-- Generator: Adobe Illustrator 25.2.1, SVG Export Plug-In . SVG Version: 6.00 Build 0)  -->
<svg version="1.1" xmlns="http://www.w3.org/2000/svg" xmlns:xlink="http://www.w3.org/1999/xlink" x="0px" y="0px"
	 viewBox="0 0 750 780" style="enable-background:new 0 0 750 780;" xml:space="preserve">
<style type="text/css">
	.st0{fill:url(#SVGID_1_);}
	.st1{fill:url(#SVGID_2_);}
	.st2{fill:url(#SVGID_3_);}
	.st3{fill:url(#SVGID_4_);}
	.st4{fill:url(#SVGID_5_);}
	.st5{fill:#169445;}
	.st6{fill:url(#SVGID_6_);}
	.st7{fill:url(#SVGID_7_);}
	.st8{fill:url(#SVGID_8_);}
	.st9{fill:url(#SVGID_9_);}
	.st10{fill:url(#SVGID_10_);}
	.st11{fill:#252B06;}
</style>
<g id="BACKGROUND">
	<linearGradient id="SVGID_1_" gradientUnits="userSpaceOnUse" x1="532.9261" y1="24.0971" x2="572.9543" y2="213.4616">
		<stop  offset="0" style="stop-color:#9BC1C0"/>
		<stop  offset="5.449222e-02" style="stop-color:#96BEBD;stop-opacity:0.9454"/>
		<stop  offset="0.4305" style="stop-color:#7AADAA;stop-opacity:0.5684"/>
		<stop  offset="0.7577" style="stop-color:#68A39E;stop-opacity:0.2404"/>
		<stop  offset="0.9975" style="stop-color:#629F9A;stop-opacity:0"/>
	</linearGradient>
	<path class="st0" d="M750-4.8V250c-10,0.6-20,1.2-30.2,1.8c-63,3.9-128.2,7.6-189.8,3.1c-62.2-4.6-125.8-5.9-182.3-51.1
		c8.8-19.9,27.2-24.1,38.7-8.8c2-10.5,11.6-15.5,16.4-8.3c3.1-22.9,15.1-44.2,28.3-49.6c13.2-5.4,27.9,3.1,36.6,21.2
		c6-10.4,16.8-13.2,24.3-6.3c5.5-16,16.9-22.8,25.2-11c2.9-25.3,13.9-47.5,28-55.4c14.1-7.9,30.6-1.5,41.4,16c4.6-5.3,12.8-3,17,3.3
		c10.2-25.6,34.7-35.4,50.4-20.6c2.2-20.5,13.6-38.4,24.6-46.7c11-8.4,24.3-6.6,34.5,4.5c2.5-16.6,12.9-29.4,21.4-38.1
		C739.3-0.9,744.6-3.8,750-4.8z"/>
	<linearGradient id="SVGID_2_" gradientUnits="userSpaceOnUse" x1="124.2539" y1="49.8562" x2="74.9453" y2="163.6452">
		<stop  offset="0" style="stop-color:#9BC1C0"/>
		<stop  offset="5.449222e-02" style="stop-color:#96BEBD;stop-opacity:0.9454"/>
		<stop  offset="0.4305" style="stop-color:#7AADAA;stop-opacity:0.5684"/>
		<stop  offset="0.7577" style="stop-color:#68A39E;stop-opacity:0.2404"/>
		<stop  offset="0.9975" style="stop-color:#629F9A;stop-opacity:0"/>
	</linearGradient>
	<path class="st1" d="M220.9,160.4C148.7,191.8,74.2,221.1,0,215.3V3.1c10.1,6,18.9,19,23,36c7.7-4.5,16,2.2,21.8,12.1
		c7.1-8.9,17.6-10.1,26.1-7c8.6,3.1,16.3,12.6,20.6,25.6c4.4-2.3,11.4,4.7,12.5,12.4c8.1-13.2,20.8-17.6,31.7-13.3
		c10.9,4.3,20.2,18.5,24.1,36.4c3.6-2.8,8.1-1.9,11.3,2.1c3.2,4,5,11.1,4.6,17.9c7.9-6.2,20-2.5,27.9,3.3
		C211.8,134.5,218.1,146.3,220.9,160.4z"/>
	<g>
		<linearGradient id="SVGID_3_" gradientUnits="userSpaceOnUse" x1="392.2981" y1="175.6103" x2="384.989" y2="304.251">
			<stop  offset="0" style="stop-color:#2AC395"/>
			<stop  offset="1" style="stop-color:#47E1D7"/>
		</linearGradient>
		<path class="st2" d="M750,217.5V780H0V180.1c22.1-27.1,43.8-55.9,70.1-68.5c45.2-21.6,84,38.2,127.6,48.7
			c21.7,5.3,43.3-11.6,65.3-11.2c38.3,0.6,70,52,107.6,64.3c39.9,13.1,79.4-19.2,116.6-47c37.2-27.7,67.3-45.8,104.3-17.2
			c32.5,25.1,67.1,81.2,102.3,91.5C710.9,245.8,731.5,223.7,750,217.5z"/>
	</g>
	<linearGradient id="SVGID_4_" gradientUnits="userSpaceOnUse" x1="597.9514" y1="252.0018" x2="604.0818" y2="314.3277">
		<stop  offset="0" style="stop-color:#9BC1C0"/>
		<stop  offset="0.9975" style="stop-color:#629F9A;stop-opacity:0"/>
	</linearGradient>
	<path class="st3" d="M750,240.5v119.6l-34.6,0.4L455.8,364v-58.6c13.2-14,34.8-16.1,49.8-4.7c3.7-8.2,14.6-11.8,21.7-7.4
		c4.3-14.5,16.3-23.7,29.5-24.8c13.2-1.1,26.7,7.5,32.8,21.1c6.8-4,17.5,1,22.6,7.5c10.2-6.9,27.5-2.3,32.8,9.8
		c3-9.1,10.5-15.5,18.5-18.6c8-3.1,17.1-1.8,24.3,3.3c1.2-9.1,13-17.6,20.3-13.7c1.4-8.9,5.8-17.6,11.7-24.3c3.7-4.2,8-7.6,12.6-9.9
		C737.9,241.1,744,240,750,240.5z"/>
	<linearGradient id="SVGID_5_" gradientUnits="userSpaceOnUse" x1="395.3686" y1="294.3989" x2="386.4001" y2="428.9254">
		<stop  offset="0" style="stop-color:#1E9D5F"/>
		<stop  offset="1" style="stop-color:#2AC395"/>
	</linearGradient>
	<path class="st4" d="M750,442.9V780H0V419.9c56.4-49.2,112.9-98.5,169.3-147.8c0.9-0.8,1.8-1.6,2.7-2.3c1.7-1.5,3.4-2.9,5-4.4
		c21.6-18.6,44.4-36.4,67.9-38.1l0.8-6.4l0.8,6.3c3.8-0.1,7.6,0.1,11.4,0.9c6,1.2,11.8,3.6,17.5,6.7l1.7-13.1l1.9,15.1
		c0.2,0.1,0.4,0.3,0.6,0.4l0.8-6.5l1,7.7c12.6,8.1,24.8,19.3,37.2,29.1l0.9-6.9l1.1,8.4c11.4,8.8,22.9,16.1,35.3,18.4
		c4.8,0.9,9.7,1.1,14.5,0.8l1.3-10.2l1.3,10c0.2,0,0.4-0.1,0.7-0.1l1.3-9.9l1.2,9.6c12.9-1.6,25.8-5.6,38.4-6.2l1.1-8.3l0.6,5
		l2.3-18.1l2.3,17.8l1.1-8.8l1.6,12.5h-0.9c0.8,0.1,1.6,0.1,2.3,0.2l1-7.9l1.1,8.2c4.7,0.8,9.4,2.5,13.9,5.1l1.2-9.2l1.4,10.8
		c0.4,0.3,0.9,0.6,1.3,1l0.5-4.1l0.6,5c10.2,8.2,18.6,22,27.3,34.7c2.7,3.9,5.4,7.7,8.2,11.2l0.2-1.7l0.3,2.3
		c1.1,1.3,2.1,2.6,3.2,3.8l1.2-9.6l1,8l0.8-5.9l1.5,12c0.6,0.5,1.2,1,1.8,1.5l0.8-5.9l0.9,7.2c0.8,0.6,1.6,1.2,2.5,1.7l1.1-8.8
		l1.3,10.2c0.3,0.1,0.5,0.3,0.8,0.4l0.6-4.4l0.6,4.9c14.2,6.2,28.9,0.4,43.8-5.2l1.3-10.1l1.2,9.1c0.6-0.2,1.2-0.5,1.8-0.7l1.4-10.8
		l1.3,9.8c8.3-3,16.6-5.3,24.8-5c9.6,0.4,18.6,4.2,27.3,10.3l0.7-5.2l0.6,5l1-7.6l1.3,10.3c3,2.3,6,4.9,8.9,7.6l0.8-6.4l1,8.1
		c15.3,14.8,29.8,34.5,45,51.1c5.3,5.8,10.7,11.3,16.2,16c9.2,7.8,18.7,13.6,28.9,15.8c2.2,0.5,4.5,0.8,6.8,1
		c7.7,0.6,15.6-0.3,23.5-1.4C741.8,443.8,745.9,443.3,750,442.9z"/>
	<path class="st5" d="M682.6,512.7c-52.7,8.5-106.1,2.7-157.7-17.6c-5-1.9-9.9-4-14.8-6.2c-42.3-19-82.7-47.4-122.7-78.1l-0.5-3.8
		l-0.4,3.1c-3.2-2.5-6.4-5-9.6-7.5l-1-8.2l-0.9,6.7c-0.1-0.1-0.2-0.2-0.4-0.3l-0.4-3l-0.3,2.4c-35.4-27.7-70.6-56.7-106.6-82
		l-0.6-4.5l-0.5,3.7c-0.3-0.2-0.7-0.5-1-0.7l-1.2-9.3l-1,7.8c-0.9-0.6-1.8-1.3-2.8-1.9l-0.7-5.9l-0.6,4.9c-0.7-0.5-1.3-0.9-2-1.4
		l-1.4-11.2l-0.8,5.9l-1-8l-1.3,10.3c-0.9-0.6-1.9-1.3-2.8-1.9l-0.6-4.9l-0.5,4.1c-12-8-24.3-15.4-36.7-22.1l-1-8l-0.9,7
		c-2.1-1.1-4.1-2.1-6.2-3.2l-1.5-11.4l-0.8,5.9l-1-8l-1.4,11.1c-2.5-1.2-5-2.4-7.4-3.6l-0.5-4.1l-0.5,3.6c-0.5-0.2-0.9-0.4-1.4-0.7
		l-1.5-11.9l-1.4,10.7c-3-1.4-6-2.7-9.1-3.9l-1.3-10.3l-1.2,9.2c-1.8-0.7-3.6-1.5-5.4-2.2c-7.5-2.9-15.1-5.5-22.7-7.8l-1-7.9
		l-0.9,7.3c-0.5-0.1-0.9-0.3-1.4-0.4l-0.9-6.9l-0.8,6.4c-1.7-0.5-3.3-0.9-5-1.3l-0.9-7l-0.8,6.6c-33.7-8.3-67.6-9.3-100.3,0.3
		l-0.9-7.1l-1,7.7c-0.9,0.3-1.7,0.5-2.6,0.8l-0.8-6.1l-0.9,6.7c-1.3,0.4-2.6,0.9-3.9,1.3l-0.2-1.7l-0.2,1.9
		c-1.6,0.6-3.2,1.2-4.9,1.9l-1.1-8.7l-1.1,8.8l-2.3-17.8l-2.7,20.8C8,263,4,265.1,0,267.3V780h750V493.7
		C727.8,502.7,705.3,509,682.6,512.7z"/>
	<linearGradient id="SVGID_6_" gradientUnits="userSpaceOnUse" x1="258.5168" y1="370.3212" x2="235.9276" y2="461.8669">
		<stop  offset="0" style="stop-color:#9BC1C0"/>
		<stop  offset="0.6183" style="stop-color:#75AAA6;stop-opacity:0.3802"/>
		<stop  offset="0.9975" style="stop-color:#629F9A;stop-opacity:0"/>
	</linearGradient>
	<path class="st6" d="M492.9,500c-2.9-11.1-10.3-19.9-18.7-24.6c-9.3-5.2-18.8-3.2-28.9-3.4c-5.9-13.6-16.5-23-28.1-26.8
		c-5-8.8-12.9-14.6-21.2-15.6c-8.3-1-16.4,4.3-22.6,11.7c-7.6-9.3-18.3-14.3-28.7-13.3c-10.4,1-21.6,6.1-28,16.9
		c-5.8-8.4-14.9-10.8-21.5-3.6c-8.6-16.6-22.3-28.6-37.4-32.5c-15.1-3.9-34.6,0.4-47.4,11.5c-6-12.6-21.1-15.7-29.6-5.9
		c-4.8-14.3-14.2-25.9-25.3-31.5c-11.1-5.6-25.1-5.3-36,1c-2.9-11.9-13.4-21.6-22.8-19.5c-12.8-15.8-33.2-16.9-49.2-7.4
		C33.6,344.5,16.7,338.1,0,338.5V500H492.9z"/>
	<linearGradient id="SVGID_7_" gradientUnits="userSpaceOnUse" x1="468.9572" y1="520.4433" x2="558.8455" y2="679.3156">
		<stop  offset="0" style="stop-color:#5ABE2B"/>
		<stop  offset="0.879" style="stop-color:#21D763"/>
	</linearGradient>
	<path class="st7" d="M750,301.6V780H211c31.7-23.1,56.1-72,83-113.5c2.1-3.3,4.3-6.6,6.5-9.8c15.4-22.6,31.8-42,50.9-52
		c33.4-17.6,70.6-3.9,103.8-22.7c23.7-13.4,42.8-41.7,61.8-70.3c2.6-3.9,5.2-7.9,7.9-11.8c0.9-1.3,1.7-2.5,2.6-3.8
		c14.6-21.5,29.8-41.6,47.4-53.9c7.5-5.1,15.2-8.8,23.2-11.7c21.2-7.6,43.6-9.4,64.2-17.7c14.7-5.9,28.4-15.1,39.9-32
		c11.5-16.8,19.4-39.6,30.1-57.9C737.3,314.3,743.4,306.6,750,301.6z"/>
	<linearGradient id="SVGID_8_" gradientUnits="userSpaceOnUse" x1="376.5715" y1="368.2947" x2="374.5477" y2="665.7683">
		<stop  offset="0" style="stop-color:#609013"/>
		<stop  offset="1" style="stop-color:#5ABE2B"/>
	</linearGradient>
	<path class="st8" d="M743.8,676.5c-42.5-31.8-85.1-63.6-127.6-95.4c-7-5.2-13.9-10.4-20.9-15.6c-4.1-3.1-8.2-6.1-12.3-9.1
		l-1.8-13.9l-1.5,11.5c-0.5-0.4-1.1-0.8-1.6-1.2l-3.2-24.9l-2.6,20.6c-1.9-1.4-3.8-2.8-5.7-4.1l-2.1-16.5l-1.8,13.8
		c-1.3-0.9-2.6-1.9-3.9-2.8l-3.7-28.7l-1.8,13.7l-2.4-18.6l-3.3,25.9c-2.2-1.5-4.4-2.9-6.5-4.4l-1.2-9.3l-1,7.8
		c-7.3-4.8-14.6-9.4-22-13.7c-20-11.7-38.4-20.4-56.5-25.3l-0.9-7.4l-0.9,6.9c-5.4-1.4-10.8-2.4-16.2-3.1l-2.8-21.5l-1.8,13.7
		l-2.4-18.6l-3.3,25.5c-5.4-0.3-10.8-0.2-16.2,0.3l-2.3-17.7l-2.3,18.2c-0.2,0-0.4,0.1-0.6,0.1l-5-39.2l-5.2,40.9
		c-2.1,0.4-4.2,0.9-6.3,1.4l-1.3-10.1l-1.4,10.8c-5.5,1.5-11.1,3.4-16.8,5.6c-52.2,20.5-103.3,55.2-156,38.5
		c-0.3-0.1-0.5-0.2-0.8-0.3l-1.3-10.6l-1.2,9.7c-7.2-2.7-14.2-6.6-21-11.4l-3.5-27.4l-2.4,18.6l-1.3-10.5l-1.6,12.6
		c-29.3-24.2-55.9-62.5-86-86.5l-1-8.1l-0.9,6.7c-6-4.6-12.1-8.7-18.4-12L78,398.9l-1.4,11c-4.2-2-8.4-3.6-12.8-4.8l-1.4-10.7l-1,8
		l-3.1-24.3L55,403.3c-1.5-0.2-2.9-0.4-4.4-0.5l-2.5-19.3l-2.5,19.2c-2.7,0-5.5,0.2-8.3,0.6l-0.7-5.3l-0.7,5.5
		c-3.7,0.6-7.4,1.5-11.3,2.7l-2.5-19.6l-2.6,20.4l-5.3-41.3l-6.1,47.7c-2.7,1.5-5.5,3.2-8.2,5V780h750v-98.8
		C747.9,679.6,745.8,678.1,743.8,676.5z"/>
	<linearGradient id="SVGID_9_" gradientUnits="userSpaceOnUse" x1="517.6011" y1="452.2231" x2="576.4985" y2="600.4819">
		<stop  offset="0" style="stop-color:#9BC1C0"/>
		<stop  offset="8.031538e-02" style="stop-color:#8CB8B6;stop-opacity:0.9195"/>
		<stop  offset="0.2202" style="stop-color:#79ADAA;stop-opacity:0.7793"/>
		<stop  offset="0.3841" style="stop-color:#6CA5A1;stop-opacity:0.6149"/>
		<stop  offset="0.5929" style="stop-color:#64A09C;stop-opacity:0.4057"/>
		<stop  offset="0.9975" style="stop-color:#629F9A;stop-opacity:0"/>
	</linearGradient>
	<path class="st9" d="M750,368.9v369.3H365.7c1-7.9,2.7-15.5,5.1-22.5c1.5-4.4,3.1-8.5,5-12.2c1.4-2.7,2.8-5.2,4.4-7.5
		c2.8-4,5.8-7.2,9.2-9c5.3-2.8,11.4-1.9,15.9,4c0.8-10.7,5.8-17.9,11.4-20c3.5-1.3,13.1-0.6,14.9,7.5c0.1,0.4,0.1,0.7,0.2,1.1
		c0-0.4-0.1-0.8-0.1-1.2c-1.4-14.9,5.1-30.4,12.8-36.9c7.8-6.7,17-5.9,25.5-2.9c3-8.1,6.7-14.2,11.3-15.4c1.5-0.4,3.1-0.3,4.8,0.4
		c2.7-17.3,12.2-29.4,22-32.1c9.9-2.7,20.4,5.9,25.8,21.1c8.2-14,21.9-14.6,30.3-1.3c9.3-33,31.6-48.8,51.9-43
		c0.7,0.2,1.4,0.4,2.1,0.7c0-0.8-0.1-1.7-0.1-2.6c-0.8-17.7,1.9-37,8.5-50.1c0.5-1,1-2,1.6-2.9c8.1-13.6,19.8-19.7,30.6-16
		c1.3-12.2,7.1-21.4,13.6-25.8c4.9-3.4,10.6-2.9,15.4,0.9c1.5,1.2,2.8,2.6,4.1,4.4c0.2-0.8,0.3-1.7,0.6-2.5
		c3.5-14.1,13.5-24.9,21.2-18.8c0.2-3.4,0.3-6.7,0.5-10c0.3-5.9,0.7-11.8,1.2-17.6c1-11,2.6-21.6,5.8-31.7
		C727,378.2,738.6,364.3,750,368.9z"/>
	<linearGradient id="SVGID_10_" gradientUnits="userSpaceOnUse" x1="374.5573" y1="580.4756" x2="379.4215" y2="835.8519">
		<stop  offset="0" style="stop-color:#36490B"/>
		<stop  offset="0.2084" style="stop-color:#3A500C"/>
		<stop  offset="0.5016" style="stop-color:#45620E"/>
		<stop  offset="0.8435" style="stop-color:#568011"/>
		<stop  offset="1" style="stop-color:#609013"/>
	</linearGradient>
	<path class="st10" d="M750,432.3V780H0V594.3c25.1-28.9,51.1-55.1,79.6-70.1c3.3-1.7,6.6-3.2,9.9-4.3l5.6-44.1l5.3,41.2
		c1.6-0.3,3.2-0.5,4.8-0.6l2.8-21.5l2.3,17.7l4.1-32.3l4.6,36.4c10.3,1.4,20.5,5.2,30.4,11.1l1.5-11.8l1.8,13.8
		c12.6,8,24.9,19.2,36.6,32.6c15.4,17.5,31.3,38.5,46.6,58c14.6,18.7,29.4,41.8,48.3,41c3.3-0.1,6.6-0.9,9.8-2
		c2.2-0.7,4.3-1.6,6.5-2.5c9.8-4.2,19.6-9.5,29.5-7.2c7.2,1.6,13.7,7,19.9,13.7l0.9-6.8l1.2,9c1.8,2,3.6,4.1,5.3,6.3l4.4-34.4
		l6,46.8c3.1,3.5,6.2,6.7,9.4,9.4c1,0.9,2.1,1.7,3.2,2.5c25.3,18.3,54.5,5.1,80.7-10.3c13.5-7.9,26.8-16.3,40.1-25.2l5.7-44.3
		l4.8,37.2c1-0.7,2.1-1.5,3.1-2.2l2.2-17.1l1.8,14.3c33.3-23.6,65.9-50.3,97.7-80.1c0,0,0,0,0,0c0.7-0.6,1.3-1.3,2-1.9
		c13.8-13,27.5-26.6,41-40.8l1.3-10.2l0.8-6l0.8,5.9l0.8,6.5c2.3-2.4,4.5-4.8,6.8-7.3c2.3-2.5,4.6-5,6.9-7.5c2-2.2,4.1-4.5,6.1-6.7
		c0.7-0.7,1.3-1.5,2-2.2l3.3-25.5l2.2-17.3l2.5,19.2l1.7,13.2c2.9-3.1,5.9-6.2,8.8-9.2l1.7-13.1l1.3,10.1c10.1-10,20.4-19,31-25.4
		l0.7-5.6l2.1-16.7l0.1-0.4l0.1,0.4l1.6,12.5l1.6-12.5l3.1-24.6l3.8,24.4V432.3z"/>
	<path class="st11" d="M724.1,686.1l-10.8-34l-7.2,40.5l-5.3-22.6l-5.7,33.3c-0.7,0-1.4,0.1-2.1,0.2l-7.2-57l-3.4,39.2l-7.1-56
		l-6.6,75.7c0,0-0.1,0-0.1,0l-3.7-24.9l-3.6,25.6c-9.8,0.9-19.6,1.9-29.4,3l-5.5-28.3l-3.1,20.1l-5.4-35.4l-3.8,44l-3.6-19.3
		L607,712c-3.6,0.5-7.1,0.9-10.7,1.4l-2-16.2l-1.9,16.7c-1.4,0.2-2.9,0.4-4.3,0.6l-4.3-34.1l-3.9,35.2c-3.3,0.5-6.7,1-10,1.5
		l-2.7-14l-2.6,14.8c-14.3,2.2-28.5,4.5-42.7,7l-5.1-28.3l-4,26.2l-7.2-33.9l-6.9,40.2c-2.8,0.5-5.5,1-8.3,1.6l-3.2-25.2l-2.3,26.2
		c-0.9,0.2-1.8,0.4-2.7,0.5l-5.5-43.5l-4,45.5c-11.5,2.3-22.9,4.8-34.3,7.3l-6.3-26l-4.1,24.1l-2.9-16.4l-2.7,21.9
		c-14.3,3.3-28.4,6.7-42.3,10.3l-7.3-49l-6.7,52.6c-3,0.8-6,1.6-8.9,2.4l-1.5-12.2l-1.9,13.1c-5.1,1.4-10.2,2.8-15.3,4.2l-10.3-59.9
		l-11.1,52.4l-6.2-40.6l-8.8,49.3c-8.1-2.2-16.1-4.4-24-6.4l-8.6-48.7l-8.5,44.3c-2.9-0.7-5.8-1.5-8.6-2.2l-8.5-77.2l-9.2,72.8
		c-0.6-0.1-1.1-0.3-1.7-0.4l-5.4-46.5l-5.6,43.9c-3.7-0.9-7.5-1.7-11.2-2.6l-8.4-52.3l-5.6,29.9l-5.9-68l-8.3,54.7l-4.8-31
		l-10.7,55.2l-9.3,0.4c-11.2-2.2-22.1-4.3-32.6-6.2l-6.9-49.9l-5.7,38.6L102.2,599l-10.8,88.8L86,625L74,719c-0.5-0.1-1-0.1-1.5-0.2
		l-9.8-57.4l-8.2,35l-11.1-62.6l-16.7,52.6L6.4,522.8c0,0-2.6,16.2-6.4,39.2V780h750V657.8c-5.7-35.3-12.7-77.5-12.7-77.5
		L724.1,686.1z"/>
</g>
<g id="DESIGNED_BY_FREEPIK">
</g>
</svg>
