<?xml version="1.0" encoding="UTF-8" standalone="no"?>
<svg
   xmlns:dc="http://purl.org/dc/elements/1.1/"
   xmlns:cc="http://creativecommons.org/ns#"
   xmlns:rdf="http://www.w3.org/1999/02/22-rdf-syntax-ns#"
   xmlns:svg="http://www.w3.org/2000/svg"
   xmlns="http://www.w3.org/2000/svg"
   xmlns:sodipodi="http://sodipodi.sourceforge.net/DTD/sodipodi-0.dtd"
   xmlns:inkscape="http://www.inkscape.org/namespaces/inkscape"
   version="1.1"
   id="Layer_1"
   x="0px"
   y="0px"
   viewBox="0 0 349.99998 400"
   enable-background="new 0 0 1472.488 1643.041"
   xml:space="preserve"
   sodipodi:docname="blue_bird.svg"
   inkscape:version="1.0.2 (e86c8708, 2021-01-15)"
   width="350"
   height="400"><metadata
   id="metadata189"><rdf:RDF><cc:Work
       rdf:about=""><dc:format>image/svg+xml</dc:format><dc:type
         rdf:resource="http://purl.org/dc/dcmitype/StillImage" /><dc:title></dc:title></cc:Work></rdf:RDF></metadata><defs
   id="defs187" /><sodipodi:namedview
   pagecolor="#ffffff"
   bordercolor="#666666"
   borderopacity="1"
   objecttolerance="10"
   gridtolerance="10"
   guidetolerance="10"
   inkscape:pageopacity="0"
   inkscape:pageshadow="2"
   inkscape:window-width="1389"
   inkscape:window-height="679"
   id="namedview185"
   showgrid="false"
   inkscape:zoom="1.3340224"
   inkscape:cx="90.842632"
   inkscape:cy="316.34682"
   inkscape:window-x="2273"
   inkscape:window-y="264"
   inkscape:window-maximized="0"
   inkscape:current-layer="g182"
   inkscape:document-rotation="0" />
<g
   id="g182"
   transform="matrix(0.19666283,-0.02961417,0.03039851,0.20154137,-6.2466005,25.869584)"
   inkscape:transform-center-x="-244.65656"
   inkscape:transform-center-y="220.65644">
	<path
   fill="#d0edfb"
   stroke="#d0edfb"
   stroke-width="0.5"
   d="m 35.456,21.553 c 1.115,0.491 2.211,1.011 3.279,1.606 15.986,9.514 32.02,18.963 48.016,28.458 2.145,1.266 3.987,2.948 5.82,4.611 151.681,133.956 303.372,267.904 455.053,401.86 9.25,7.729 17.111,16.912 25.709,25.331 69.491,71.296 139.096,142.479 208.616,213.747 3.373,3.93 7.804,6.963 10.506,11.451 -3.76,-1.389 -6.963,-3.798 -10.128,-6.17 C 739.168,672.515 696.046,642.545 652.821,612.708 637.373,602.013 622.058,591.128 606.468,580.65 579.909,561.772 552.812,543.679 526.215,524.849 475.006,489.484 423.948,453.893 372.729,418.538 343.496,397.941 313.81,378.024 284.643,357.342 257.366,338.663 230.401,319.54 203.077,300.946 c -11.659,-8.598 -23.923,-16.298 -35.639,-24.802 -14.541,-10.299 -29.365,-20.181 -43.925,-30.442 -0.964,-0.765 -1.559,-1.861 -2.258,-2.834 -15.504,-23.11 -31.188,-46.098 -46.665,-69.227 4.743,-3.392 9.93,-6.104 14.768,-9.363 -16.922,-20.191 -34.297,-40.013 -51.37,-60.081 -2.438,-2.919 -5.083,-5.678 -7.218,-8.834 35.506,21.769 70.928,43.688 106.406,65.504 3.241,1.965 6.34,4.195 9.836,5.726 -0.765,-1.238 -1.578,-2.447 -2.457,-3.6 C 122.682,134.781 100.829,106.549 79.032,78.28 64.538,59.345 49.761,40.619 35.456,21.553 Z"
   id="path10" />
	<path
   fill="#b4e3f7"
   stroke="#b4e3f7"
   stroke-width="0.5"
   d="m 123.513,245.702 c 14.56,10.261 29.384,20.144 43.925,30.442 11.716,8.503 23.98,16.204 35.639,24.802 27.324,18.594 54.289,37.717 81.566,56.396 29.167,20.682 58.853,40.599 88.086,61.196 51.219,35.355 102.277,70.947 153.486,106.311 26.597,18.83 53.694,36.924 80.253,55.801 15.59,10.478 30.905,21.362 46.353,32.058 43.226,29.837 86.347,59.807 129.506,89.739 3.165,2.371 6.368,4.781 10.128,6.17 1.861,0.765 3.099,2.447 4.299,3.997 -2.031,-0.35 -4.034,-0.794 -6,-1.408 -3.76,-2.731 -8.39,-3.656 -12.453,-5.763 -0.935,-3.382 -4.894,-4.006 -7.474,-5.726 -6.604,-3.997 -13.823,-6.774 -20.531,-10.563 -12.207,-6.434 -24.802,-12.131 -36.848,-18.878 -9.448,-4.734 -18.755,-9.751 -28.316,-14.257 -12.859,-7.237 -26.257,-13.445 -39.352,-20.219 -15.032,-8.513 -30.981,-15.306 -46.003,-23.847 -13.124,-6.708 -26.464,-13.02 -39.352,-20.191 -9.221,-4.658 -18.528,-9.165 -27.693,-13.927 -10.346,-5.933 -21.249,-10.818 -31.803,-16.364 -6.434,-3.297 -12.708,-6.897 -19.246,-10.006 -15.807,-7.662 -31.122,-16.27 -46.92,-23.961 -28.118,-14.418 -56.16,-28.987 -84.363,-43.254 -9.004,-4.97 -18.263,-9.42 -27.438,-14.049 -6.992,-3.279 -13.501,-7.455 -20.493,-10.724 -8.551,-4.375 -17.243,-8.484 -25.727,-12.972 -12.5,-6.944 -25.501,-12.916 -38.18,-19.511 -11.744,-6.737 -24.206,-12.113 -36.017,-18.736 -7.332,-4.119 -15.183,-7.285 -22.373,-11.65 -9.892,-18.141 -19.832,-36.272 -29.507,-54.535 3.203,-6.047 6.472,-12.046 9.675,-18.093 -14.371,-22.865 -29.648,-45.172 -44.123,-67.97 l 0.227,-0.784 c 2.901,-1.625 5.981,-2.901 8.834,-4.611 -2.806,0.076 -5.603,0.283 -8.399,0.085 1.986,-1.947 4.348,-3.43 6.634,-4.998 z"
   id="path12" />
	<path
   fill="#c9e8fa"
   stroke="#c9e8fa"
   stroke-width="0.5"
   d="m 171.916,403.071 c 2.646,-2.286 5.461,-4.365 8.258,-6.463 7.19,4.365 15.042,7.53 22.373,11.65 11.81,6.623 24.272,11.999 36.017,18.736 12.679,6.595 25.68,12.566 38.18,19.511 8.484,4.488 17.177,8.598 25.727,12.972 6.992,3.269 13.501,7.445 20.493,10.724 9.174,4.63 18.433,9.08 27.438,14.049 28.203,14.267 56.245,28.836 84.363,43.254 15.797,7.691 31.113,16.298 46.92,23.961 6.538,3.108 12.812,6.708 19.246,10.006 10.554,5.546 21.457,10.431 31.803,16.364 9.165,4.762 18.471,9.269 27.693,13.927 12.887,7.171 26.228,13.483 39.352,20.191 15.023,8.541 30.971,15.334 46.003,23.847 13.095,6.774 26.493,12.982 39.352,20.219 9.562,4.507 18.868,9.524 28.316,14.257 12.046,6.746 24.641,12.443 36.848,18.878 6.708,3.789 13.927,6.567 20.531,10.563 2.579,1.72 6.538,2.343 7.474,5.726 C 721.217,684.09 664.301,662.284 607.206,640.978 478.219,592.178 349.204,543.463 220.18,494.777 c -7.19,-9.344 -13.681,-19.237 -20.607,-28.789 -2.986,-4.573 -6.878,-8.645 -8.815,-13.823 -6.217,-15.155 -12.377,-30.329 -18.651,-45.455 -0.266,-1.117 -1.636,-2.808 -0.191,-3.639 z"
   id="path14" />
	<path
   fill="#00afd8"
   stroke="#00afd8"
   stroke-width="0.5"
   d="m 220.178,494.775 c 129.025,48.687 258.04,97.401 387.026,146.201 -7.672,0.624 -15.41,0.321 -23.072,-0.312 4.233,-0.302 8.466,-0.425 12.698,-0.576 -7.833,-3.741 -16.676,-4.384 -25.104,-5.933 -10.402,-3.477 -21.221,-5.395 -31.925,-7.691 -7.483,-2.277 -15.24,-3.354 -22.78,-5.395 -9.391,-1.238 -18.282,-4.648 -27.541,-6.5 -10.128,-2.05 -20.068,-4.885 -30.225,-6.774 -21.844,-5.518 -43.925,-10.053 -65.826,-15.316 -16.326,-3.893 -32.757,-7.341 -49.055,-11.395 -7.899,-1.984 -15.986,-3.212 -23.819,-5.47 -8.692,-2.39 -17.583,-3.902 -26.379,-5.82 -10.327,-2.901 -20.862,-5.008 -31.283,-7.54 -2.57,-0.784 -5.187,-0.094 -7.634,0.728 -2.192,-6.255 -7.984,-10.081 -11.376,-15.58 -9.108,-14.163 -18.632,-28.08 -27.617,-42.309 -0.538,-3.676 2.835,-6.869 3.912,-10.318 z"
   id="path16" />
	<path
   fill="#76d0ea"
   stroke="#76d0ea"
   stroke-width="0.5"
   d="m 1171.318,529.119 c 9.212,5.395 17.97,11.517 27.107,17.054 4.157,2.315 6.954,6.264 10.176,9.647 18.537,20.2 36.914,40.571 55.546,60.686 2.929,0.737 6.019,-1.134 8.976,-1.606 3.524,8.107 6.066,16.619 9.231,24.868 5.839,16.147 11.735,32.256 17.526,48.413 -1.606,0.368 -3.175,0.831 -4.743,1.266 -6.85,-0.841 -13.558,1.162 -20.304,1.994 4.044,-1.313 8.069,-2.702 12.16,-3.883 3.43,-1.077 7.077,-1.786 10.062,-3.94 -48.214,2.834 -96.381,6.472 -144.586,9.467 -18.981,1.049 -37.925,2.693 -56.888,3.94 -13.426,0.425 -26.786,1.927 -40.202,2.419 10.875,-12.018 22.232,-23.602 33.286,-35.468 1.559,-1.842 3.59,-3.137 5.641,-4.375 0.123,0.387 0.387,1.143 0.51,1.521 3.93,0.548 7.87,1.068 11.82,1.502 4.015,0.491 7.87,-1.039 11.668,-2.116 37.405,-11.158 74.867,-22.147 112.311,-33.182 7.927,-2.343 15.901,-4.516 23.753,-7.115 -1.568,-0.18 -3.118,-0.34 -4.658,-0.501 -7.53,-3.127 -15.344,-5.489 -23.025,-8.201 -21.344,-7.313 -42.602,-14.862 -63.974,-22.099 -4.573,-1.398 -9.004,-3.165 -13.388,-5.026 -1.568,-9.656 -4.989,-18.925 -6.67,-28.562 8.673,-0.17 17.337,-0.472 26.011,-0.775 1.067,-8.619 1.766,-17.283 2.654,-25.928 z"
   id="path18" />
	<path
   fill="#02b3e5"
   stroke="#02b3e5"
   stroke-width="0.5"
   d="m 255.259,562.981 c 2.447,-0.822 5.064,-1.512 7.634,-0.728 10.421,2.532 20.956,4.639 31.283,7.54 8.796,1.918 17.687,3.43 26.379,5.82 7.833,2.258 15.92,3.486 23.819,5.47 16.298,4.053 32.729,7.502 49.055,11.395 21.901,5.263 43.981,9.798 65.826,15.316 10.157,1.89 20.096,4.724 30.225,6.774 9.259,1.852 18.15,5.263 27.541,6.5 7.54,2.041 15.297,3.118 22.78,5.395 10.705,2.296 21.523,4.214 31.925,7.691 8.428,1.549 17.271,2.192 25.104,5.933 -4.233,0.151 -8.466,0.274 -12.698,0.576 -4.346,-0.198 -8.702,-0.236 -13.048,-0.236 -3.534,0.189 -6.746,-1.814 -10.289,-1.417 -13.577,0.378 -27.145,-0.387 -40.703,-0.605 -6.642,0.076 -13.218,-1.02 -19.851,-1.02 -6.302,-0.028 -12.585,-0.548 -18.887,-0.624 -4.45,0.038 -8.73,-1.417 -13.161,-1.483 -19.87,0.113 -39.749,-0.283 -59.58,-1.559 -12.292,-0.057 -24.556,-0.935 -36.848,-1.257 -10.365,-0.973 -20.777,-0.491 -31.141,-1.323 -7.275,-0.397 -14.579,-0.057 -21.825,-0.813 -6.793,-0.765 -13.634,-0.34 -20.436,-0.642 -1.899,-0.208 -4.11,-0.34 -5.338,-2.013 -3.997,-4.516 -8.154,-8.881 -12.132,-13.398 -6.122,-7.766 -11.905,-15.788 -18.018,-23.545 -1.701,-2.06 -2.778,-4.554 -3.212,-7.171 -1.267,-6.904 -3.469,-13.612 -4.404,-20.576 z"
   id="path20" />
	<path
   fill="#0198b7"
   stroke="#0198b7"
   stroke-width="0.5"
   d="m 1116.386,580.035 c 5.3,-0.557 10.648,-0.104 15.967,-0.057 5.981,-0.019 11.149,3.467 16.969,4.403 4.384,1.861 8.815,3.628 13.388,5.026 21.372,7.237 42.63,14.786 63.974,22.099 7.681,2.712 15.495,5.074 23.025,8.201 -11.99,-1.03 -24.046,-0.643 -36.035,-1.653 -12.027,-0.009 -23.989,-1.153 -35.998,-1.342 -10.043,-0.916 -20.134,-0.51 -30.177,-1.37 -11.914,-0.161 -23.791,-1.351 -35.705,-1.332 1.682,-6.406 1.625,-13.076 2.816,-19.558 0.784,-4.789 1.011,-9.636 1.776,-14.417 z"
   id="path22" />
	<path
   fill="#01afd8"
   stroke="#01afd8"
   stroke-width="0.5"
   d="m 1105.946,613.973 c 1.937,-0.038 3.883,-0.038 5.848,0.038 11.914,-0.019 23.791,1.172 35.705,1.332 10.043,0.86 20.134,0.454 30.177,1.37 12.009,0.189 23.97,1.332 35.998,1.342 11.99,1.011 24.046,0.624 36.035,1.653 1.54,0.161 3.09,0.321 4.658,0.501 -7.852,2.598 -15.826,4.771 -23.753,7.115 -37.443,11.035 -74.905,22.024 -112.311,33.182 -3.798,1.077 -7.653,2.608 -11.668,2.116 -3.949,-0.435 -7.889,-0.954 -11.82,-1.502 -0.123,-0.378 -0.387,-1.134 -0.51,-1.521 3.346,-15.306 7.824,-30.405 11.641,-45.626 z"
   id="path24" />
	<path
   fill="#76d0ea"
   stroke="#76d0ea"
   stroke-width="0.5"
   d="m 298.362,629.686 c 6.803,0.302 13.643,-0.123 20.436,0.642 7.247,0.756 14.55,0.416 21.825,0.813 10.365,0.831 20.777,0.35 31.141,1.323 12.292,0.321 24.556,1.2 36.848,1.257 19.832,1.276 39.711,1.672 59.58,1.559 4.431,0.066 8.711,1.521 13.161,1.483 6.302,0.076 12.585,0.595 18.887,0.624 6.633,0 13.209,1.096 19.851,1.02 13.558,0.217 27.126,0.983 40.703,0.605 3.543,-0.397 6.755,1.606 10.289,1.417 4.346,0 8.702,0.038 13.048,0.236 7.662,0.633 15.401,0.935 23.072,0.312 57.095,21.306 114.011,43.112 171.097,64.465 4.063,2.107 8.692,3.033 12.453,5.763 -46.211,-12.415 -92.403,-24.962 -138.615,-37.434 -4.62,-1.342 -9.269,-2.74 -14.087,-3.108 1.644,1.313 3.316,2.598 5.093,3.742 56.935,36.234 113.652,72.808 170.597,109.032 6.793,4.034 12.963,9.278 20.361,12.207 l 0.661,0.255 c 12.887,42.394 25.699,84.816 38.558,127.229 1.238,4.327 2.702,8.588 4.204,12.84 10.818,-3.855 21.958,-6.869 32.577,-11.253 17.583,-4.856 34.646,-11.432 52.078,-16.818 30.026,-10.034 60.072,-19.974 90.126,-29.922 7.502,-2.22 14.739,-5.357 22.449,-6.831 -17.252,8.494 -35.043,15.835 -52.428,24.065 -9.637,4.488 -19.52,8.503 -28.968,13.379 1.975,0.454 3.959,0.926 5.971,1.313 -5.13,-0.387 -10.251,-1.068 -15.382,-1.332 -5.442,-0.265 -9.845,3.449 -14.579,5.518 -29.762,14.295 -59.325,28.997 -89.115,43.225 -1.445,0.718 -2.844,1.512 -4.233,2.324 2.315,0.104 4.648,0.18 6.982,0.161 -0.444,0.359 -1.342,1.087 -1.795,1.446 0.293,2.258 0.359,4.535 0.605,6.812 -1.219,0.51 -2.409,1.058 -3.6,1.606 -3.08,-10.034 -5.971,-20.134 -8.494,-30.31 0.831,-0.86 1.672,-1.71 2.523,-2.551 -32.152,-19.284 -64.465,-38.294 -96.598,-57.606 -2.343,-1.332 -4.781,-2.485 -7.181,-3.675 0.652,-0.727 1.276,-1.474 1.909,-2.211 -1.427,-1.276 -2.825,-2.57 -4.223,-3.845 -0.709,-3.921 -3.486,-6.916 -5.565,-10.138 -42.205,-63.378 -84.042,-126.993 -126.294,-190.334 -0.803,0.898 -1.606,1.795 -2.353,2.74 -0.595,-0.302 -1.776,-0.907 -2.362,-1.209 0.699,-0.52 1.398,-1.049 2.107,-1.559 -6.453,0 -12.897,0.567 -19.265,1.625 -10.015,0.17 -19.945,1.568 -29.932,2.097 -79.667,6.321 -159.334,12.491 -239.002,18.792 -3.704,0.217 -7.455,0.265 -11.092,1.077 -10.856,-14.777 -21.684,-29.573 -32.483,-44.397 -1.578,-2.249 -3.524,-4.28 -4.649,-6.803 0.457,-4.015 1.941,-7.823 3.103,-11.668 z"
   id="path26" />
	<path
   fill="#15aac7"
   stroke="#15aac7"
   stroke-width="0.5"
   d="m 612.42,670.587 c 6.368,-1.058 12.812,-1.625 19.265,-1.625 -0.709,0.51 -1.408,1.039 -2.107,1.559 l -0.586,0.435 c -2.438,0.586 -4.904,1.011 -7.322,1.653 -2.797,-1.672 -6.085,-1.909 -9.25,-2.022 z"
   id="path28" />
	<path
   fill="#02b3e5"
   stroke="#02b3e5"
   stroke-width="0.5"
   d="m 631.94,671.73 c 0.746,-0.945 1.55,-1.842 2.353,-2.74 42.252,63.341 84.089,126.955 126.294,190.334 2.079,3.222 4.856,6.217 5.565,10.138 -13.794,-12.273 -28.552,-23.488 -41.61,-36.565 -7.927,-8.305 -15.826,-16.638 -23.951,-24.745 -2.579,-1.181 -4.998,-2.702 -6.935,-4.771 -29.148,-28.307 -58.522,-56.377 -87.708,-84.646 3.335,-7.88 8.154,-15.013 12.226,-22.506 3.827,-7.237 8.598,-13.974 11.659,-21.599 0.68,-0.982 1.37,-1.965 2.107,-2.9 z"
   id="path30" />
	<path
   fill="#00afd8"
   stroke="#00afd8"
   stroke-width="0.5"
   d="m 582.488,672.684 c 9.987,-0.529 19.917,-1.927 29.932,-2.097 3.165,0.113 6.453,0.35 9.25,2.022 -14.9,5.357 -30.111,9.788 -45.096,14.89 -78.647,25.567 -157.256,51.247 -235.893,76.842 -3.779,1.247 -7.804,2.069 -11.13,4.375 -0.557,-1.304 -1.105,-2.617 -1.946,-3.741 -5.376,-6.916 -10.487,-14.021 -15.779,-20.984 -1.521,-2.079 -3.439,-4.204 -3.222,-6.963 -0.198,-7.577 -0.945,-15.145 -0.831,-22.723 -0.161,-1.531 1.342,-2.277 2.277,-3.165 7.511,-6.122 14.758,-12.576 22.345,-18.585 3.638,-0.813 7.388,-0.86 11.092,-1.077 79.666,-6.303 159.334,-12.473 239.001,-18.794 z"
   id="path32" />
	<path
   fill="#76d0ea"
   stroke="#76d0ea"
   stroke-width="0.5"
   d="m 621.669,672.609 c 2.419,-0.642 4.885,-1.068 7.322,-1.653 -1.257,1.03 -2.447,2.135 -3.694,3.175 -26.238,14.824 -52.05,30.395 -78.137,45.484 -50.86,29.781 -101.719,59.571 -152.654,89.238 -8.768,5.442 -17.942,10.195 -26.644,15.75 -6.283,3.732 -12.755,7.124 -18.991,10.941 -8.673,-11.678 -17.092,-23.545 -25.605,-35.327 1.909,-10.535 4.318,-20.975 6.283,-31.5 3.326,-2.305 7.351,-3.127 11.13,-4.375 78.637,-25.595 157.246,-51.275 235.893,-76.842 14.986,-5.103 30.198,-9.534 45.097,-14.891 z"
   id="path34" />
	<path
   fill="#b4e3f7"
   stroke="#b4e3f7"
   stroke-width="0.5"
   d="m 628.992,670.955 0.586,-0.435 c 0.586,0.302 1.767,0.907 2.362,1.209 -0.737,0.935 -1.427,1.918 -2.107,2.901 -5.943,4.497 -9.949,10.903 -15.013,16.279 -37.16,43.471 -74.263,86.99 -111.385,130.498 -27.438,32.143 -54.988,64.191 -82.294,96.457 -3.014,-12.424 -4.573,-25.179 -7.587,-37.594 7.086,-8.466 15.769,-15.419 23.365,-23.394 5.197,-4.875 10.629,-9.514 15.58,-14.645 3.741,-4.148 8.277,-7.455 12.113,-11.498 5.404,-5.641 11.565,-10.478 16.874,-16.204 10.497,-10.61 21.731,-20.465 32.266,-31.028 6.859,-6.047 12.991,-12.859 19.832,-18.925 5.017,-4.422 9.373,-9.543 14.503,-13.842 4.412,-3.77 7.88,-8.503 12.358,-12.207 10.667,-8.815 19.586,-19.51 30.244,-28.326 10.743,-11.017 22.128,-21.362 33.125,-32.114 1.219,-0.973 1.587,-2.466 1.483,-3.959 1.248,-1.037 2.438,-2.143 3.695,-3.173 z"
   id="path36" />
	<path
   fill="#c7e8fb"
   stroke="#c7e8fb"
   stroke-width="0.5"
   d="m 638.053,670.662 c 4.819,0.368 9.467,1.767 14.087,3.108 46.211,12.472 92.403,25.019 138.615,37.434 1.965,0.614 3.968,1.058 6,1.408 l 0.633,0.113 c 8.579,20.247 18.008,40.127 26.861,60.261 3.241,7.568 7.133,14.881 9.854,22.657 -7.398,-2.929 -13.568,-8.173 -20.361,-12.207 -56.944,-36.224 -113.662,-72.798 -170.597,-109.032 -1.776,-1.143 -3.448,-2.428 -5.092,-3.742 z"
   id="path38" />
	<path
   fill="#c7e8fb"
   stroke="#c7e8fb"
   stroke-width="0.5"
   d="m 547.161,719.614 c 26.086,-15.089 51.899,-30.659 78.137,-45.484 0.104,1.493 -0.265,2.986 -1.483,3.959 -10.998,10.752 -22.383,21.098 -33.125,32.114 -10.658,8.815 -19.577,19.51 -30.244,28.326 -4.478,3.704 -7.946,8.437 -12.358,12.207 -5.13,4.299 -9.486,9.42 -14.503,13.842 -6.841,6.066 -12.972,12.878 -19.832,18.925 -10.535,10.563 -21.769,20.417 -32.266,31.028 -5.31,5.726 -11.47,10.563 -16.874,16.204 -3.836,4.044 -8.371,7.351 -12.113,11.498 -4.951,5.13 -10.384,9.769 -15.58,14.645 -7.596,7.974 -16.279,14.928 -23.365,23.394 -6.595,7.993 -14.465,14.843 -21.419,22.524 -1.502,1.738 -3.26,3.345 -5.546,3.949 -7.946,2.683 -15.788,5.678 -23.8,8.135 0.161,-8.343 1.19,-16.629 1.616,-24.943 0.482,-2.173 -1.587,-3.458 -2.749,-4.932 -3.26,-3.647 -7.067,-6.812 -10.015,-10.714 -1.323,-12.868 -1.88,-25.831 -2.768,-38.747 6.236,-3.817 12.708,-7.209 18.991,-10.941 8.702,-5.556 17.876,-10.308 26.644,-15.75 50.933,-29.669 101.792,-59.459 152.652,-89.239 z"
   id="path40" />
	<path
   fill="#76d0ea"
   stroke="#76d0ea"
   stroke-width="0.5"
   d="m 614.819,690.91 c 5.064,-5.376 9.07,-11.782 15.013,-16.279 -3.061,7.625 -7.833,14.361 -11.659,21.599 -4.072,7.492 -8.891,14.626 -12.226,22.506 -0.765,1.71 -1.616,3.383 -2.523,5.026 -4.459,4.431 -6.595,10.469 -9.93,15.675 -50.869,89.342 -102.04,178.524 -152.787,267.932 -8.475,-7.625 -16.223,-16.015 -24.603,-23.753 -1.842,-1.984 -4.62,-3.647 -4.63,-6.67 -1.436,-11.451 -2.882,-22.902 -4.45,-34.335 -0.094,-1.861 -0.803,-4.006 0.539,-5.565 4.497,-6.415 9.032,-12.802 13.577,-19.18 27.305,-32.266 54.856,-64.314 82.294,-96.457 37.123,-43.51 74.226,-87.028 111.385,-130.499 z"
   id="path42" />
	<path
   fill="#0198b7"
   stroke="#0198b7"
   stroke-width="0.5"
   d="m 1152.469,693.083 c 48.205,-2.995 96.372,-6.633 144.586,-9.467 -2.986,2.154 -6.633,2.863 -10.062,3.94 -4.091,1.181 -8.116,2.57 -12.16,3.883 -21.608,3.968 -43.367,7.124 -65.06,10.629 -57.199,9.306 -114.427,18.415 -171.655,27.56 3.307,-8.371 8.012,-16.1 11.669,-24.31 1.379,-2.239 2.39,-5.962 5.593,-5.877 13.416,-0.491 26.776,-1.994 40.202,-2.419 18.962,-1.246 37.906,-2.89 56.887,-3.939 z"
   id="path44" />
	<path
   fill="#00afd8"
   stroke="#00afd8"
   stroke-width="0.5"
   d="m 1295.137,689.445 c 1.568,-0.435 3.137,-0.898 4.743,-1.266 0.529,-0.094 1.568,-0.283 2.097,-0.387 5.461,30.726 11.839,61.281 17.574,91.959 -33.399,1.02 -66.789,2.721 -100.217,3.08 -11.092,1.275 -22.269,1.105 -33.399,1.767 -15.986,0.435 -31.954,1.134 -47.931,1.691 -9.136,0.208 -18.207,1.71 -27.353,1.285 -37.934,0.671 -75.822,2.674 -113.737,3.789 -6.888,0.104 -13.861,1.427 -20.663,-0.161 95.55,-30.773 191.364,-60.742 286.894,-91.581 10.62,-3.533 21.419,-6.481 31.992,-10.176 z"
   id="path46" />
	<path
   fill="#b4e3f7"
   stroke="#b4e3f7"
   stroke-width="0.5"
   d="m 1274.833,691.439 c 6.746,-0.831 13.454,-2.834 20.304,-1.994 -10.573,3.694 -21.372,6.642 -31.992,10.176 -95.531,30.839 -191.345,60.809 -286.894,91.581 -1.323,0.028 -2.627,0.057 -3.921,0.18 3.987,-5.659 9.07,-10.459 13.539,-15.741 12.944,-14.427 25.727,-29.006 38.747,-43.348 4.167,-1.739 9.061,-1.606 13.501,-2.664 57.228,-9.146 114.455,-18.254 171.655,-27.56 21.693,-3.506 43.453,-6.662 65.061,-10.63 z"
   id="path48" />
	<path
   fill="#b4e3f7"
   stroke="#b4e3f7"
   stroke-width="0.5"
   d="m 603.425,723.761 c 0.907,-1.644 1.757,-3.316 2.523,-5.026 29.185,28.269 58.56,56.34 87.708,84.646 1.937,2.069 4.356,3.59 6.935,4.771 -1.389,0.661 -3.023,1.058 -3.949,2.381 -10.421,15.363 -20.465,31 -31.378,46.032 -4.252,5.943 -7.474,12.547 -11.895,18.386 -15.098,22.317 -30.442,44.463 -45.758,66.638 -5.452,8.645 -11.385,16.96 -17.29,25.293 -9.042,13.568 -18.33,26.975 -27.664,40.344 -11.527,17.101 -23.365,33.976 -34.987,51.011 -4.743,7.729 -10.459,14.786 -15.306,22.439 -2.834,4.582 -6.34,8.702 -9.165,13.303 0.746,0.151 2.23,0.444 2.967,0.595 -3.93,3.817 -8.078,7.407 -12.349,10.856 -4.734,-5.414 -9.779,-10.535 -14.418,-16.024 2.334,-3.543 4.923,-6.926 7.313,-10.431 2.872,-6.727 4.601,-13.889 7.077,-20.767 27.919,-84.873 55.707,-169.784 83.56,-254.667 8.672,-26.596 17.582,-53.117 26.076,-79.78 z"
   id="path50" />
	<path
   fill="#02b3e5"
   stroke="#02b3e5"
   stroke-width="0.5"
   d="m 593.495,739.436 c 3.335,-5.206 5.471,-11.243 9.93,-15.675 -8.494,26.663 -17.404,53.184 -26.077,79.781 -27.853,84.883 -55.64,169.793 -83.56,254.667 -2.475,6.878 -4.204,14.04 -7.077,20.767 -13.53,-17.035 -28.59,-32.861 -42.441,-49.613 -1.729,-7.218 -2.4,-14.673 -3.562,-21.995 50.746,-89.408 101.918,-178.59 152.787,-267.932 z"
   id="path52" />
	<path
   fill="#76d0ea"
   stroke="#76d0ea"
   stroke-width="0.5"
   d="m 1319.551,779.751 0.935,-0.076 c 0.586,12.519 -0.246,25.047 -0.066,37.576 0.01,2.268 -0.095,4.545 -0.293,6.812 -20.663,2.513 -41.421,4.204 -62.112,6.434 -40.325,4.025 -80.64,8.21 -120.975,12.245 -3.534,-0.009 -5.792,3.93 -9.382,3.382 -2.816,-0.302 -5.508,-1.209 -8.201,-1.965 -6.784,-3.052 -14.012,-4.885 -21.06,-7.181 -42.489,-13.483 -84.854,-27.381 -127.333,-40.892 -3.023,-1.02 -6.085,-1.937 -9.004,-3.212 3.411,-0.529 7.048,0.019 10.27,-1.493 1.294,-0.123 2.598,-0.151 3.921,-0.18 6.803,1.587 13.775,0.265 20.663,0.161 37.916,-1.115 75.803,-3.118 113.737,-3.789 9.146,0.425 18.216,-1.077 27.353,-1.285 15.977,-0.557 31.944,-1.257 47.931,-1.691 11.13,-0.661 22.307,-0.491 33.399,-1.767 33.427,-0.358 66.817,-2.058 100.217,-3.079 z"
   id="path54" />
	<path
   fill="#00afd8"
   stroke="#00afd8"
   stroke-width="0.5"
   d="m 971.064,796.087 c 42.479,13.511 84.845,27.409 127.333,40.892 7.048,2.296 14.276,4.129 21.06,7.181 -65.636,15.779 -131.235,31.699 -196.853,47.572 9.599,-19.019 19.255,-38.01 28.751,-57.086 6.802,-12.727 12.698,-25.936 19.709,-38.559 z"
   id="path56" />
	<path
   fill="#d0edfb"
   stroke="#d0edfb"
   stroke-width="0.5"
   d="m 696.641,810.534 c 0.926,-1.323 2.56,-1.72 3.949,-2.381 8.125,8.107 16.024,16.44 23.951,24.745 -8.806,15.561 -16.865,31.51 -25.274,47.279 -8.749,15.618 -16.638,31.689 -25.321,47.345 -3.874,7.729 -8.305,15.164 -11.98,22.997 -1.786,3.845 -4.101,7.398 -6.321,10.998 -3.609,2.797 -7.275,5.518 -11.092,8.04 -2.305,2.258 -3.921,5.168 -6.491,7.19 -1.956,1.531 -3.949,3.099 -5.263,5.253 -10.818,10.27 -22.326,19.803 -33.352,29.847 -31.028,27.645 -62.301,55.017 -93.282,82.728 -0.737,-0.151 -2.22,-0.444 -2.967,-0.595 2.825,-4.601 6.33,-8.721 9.165,-13.303 4.847,-7.653 10.563,-14.711 15.306,-22.439 11.621,-17.035 23.46,-33.91 34.987,-51.011 9.335,-13.369 18.622,-26.776 27.664,-40.344 5.905,-8.333 11.839,-16.648 17.29,-25.293 15.316,-22.175 30.659,-44.321 45.758,-66.638 4.422,-5.839 7.644,-12.443 11.895,-18.386 10.913,-15.033 20.956,-30.67 31.378,-46.032 z"
   id="path58" />
	<path
   fill="#c9e8fa"
   stroke="#c9e8fa"
   stroke-width="0.5"
   d="m 1258.015,830.498 c 20.692,-2.23 41.449,-3.921 62.112,-6.434 2.683,6.888 7.559,12.764 10.251,19.605 -5.593,13.445 -11.394,26.823 -17.177,40.193 -4.053,5.886 -8.702,11.376 -13.105,17.007 -5.291,3.808 -9.325,8.976 -13.889,13.568 -3.571,3.827 -7.379,7.455 -10.705,11.499 1.531,0.076 3.061,0.179 4.62,0.331 -1.03,0.293 -1.984,1.172 -3.08,0.945 -2.816,-0.718 -5.735,-0.973 -8.607,-0.501 -13.199,1.729 -26.502,2.39 -39.739,3.76 -4.828,0.463 -9.628,-0.51 -14.446,-0.236 -9.741,0.066 -19.388,-1.568 -29.063,-2.334 -61.971,-5.877 -123.904,-12.028 -185.856,-17.999 -2.012,-0.387 -3.997,-0.86 -5.971,-1.313 9.448,-4.875 19.331,-8.891 28.968,-13.379 17.385,-8.229 35.176,-15.571 52.428,-24.065 -7.71,1.474 -14.947,4.611 -22.449,6.831 -30.055,9.949 -60.1,19.888 -90.126,29.922 -17.432,5.385 -34.495,11.961 -52.078,16.818 1.842,-10.658 4.648,-21.126 6.992,-31.68 1.833,-0.425 3.666,-0.869 5.508,-1.304 65.618,-15.873 131.217,-31.793 196.853,-47.572 2.693,0.756 5.386,1.663 8.201,1.965 3.59,0.548 5.848,-3.392 9.382,-3.382 40.335,-4.035 80.651,-8.22 120.976,-12.245 z"
   id="path60" />
	<path
   fill="#b4e3f7"
   stroke="#b4e3f7"
   stroke-width="0.5"
   d="m 724.541,832.897 c 13.057,13.076 27.815,24.291 41.61,36.565 1.398,1.275 2.797,2.57 4.223,3.845 -0.633,0.737 -1.257,1.483 -1.909,2.211 -0.265,0.246 -0.813,0.756 -1.086,1.011 -11.036,9.051 -21.561,18.755 -32.502,27.938 -8.088,7.039 -16.563,13.643 -24.603,20.748 -6,5.678 -12.604,10.667 -18.547,16.411 -13.039,10.554 -25.567,21.721 -38.445,32.464 -1.427,1.134 -2.948,2.135 -4.469,3.137 1.739,-5.499 6.17,-9.873 6.831,-15.712 2.22,-3.6 4.535,-7.152 6.321,-10.998 3.675,-7.833 8.107,-15.268 11.98,-22.997 8.683,-15.656 16.572,-31.727 25.321,-47.345 8.41,-15.768 16.47,-31.716 25.275,-47.278 z"
   id="path62" />
	<path
   fill="#d0edfb"
   stroke="#d0edfb"
   stroke-width="0.5"
   d="m 767.38,876.529 c 0.274,-0.255 0.822,-0.765 1.086,-1.011 2.4,1.19 4.837,2.343 7.181,3.675 32.133,19.312 64.446,38.322 96.598,57.606 -0.85,0.841 -1.691,1.691 -2.523,2.551 2.523,10.176 5.414,20.276 8.494,30.31 0.699,3.316 0.746,6.718 0.746,10.109 -0.198,15.429 -0.038,30.858 -0.142,46.287 -0.113,10.384 0.454,20.796 -0.737,31.151 -0.227,12.283 0.028,24.584 -0.18,36.876 -0.227,12.604 0.576,25.246 -0.595,37.821 -0.038,1.531 -0.737,2.91 -1.625,4.138 -16.043,-36.782 -31.992,-73.601 -48.167,-110.336 -12.065,-28.326 -24.764,-56.377 -36.744,-84.741 -3.477,-8.494 -7.313,-16.837 -10.96,-25.246 -1.852,-6.538 -5.518,-12.302 -8.078,-18.547 -1.861,-4.384 -4.318,-8.532 -5.678,-13.114 -0.916,-2.578 0.218,-5.223 1.324,-7.529 z"
   id="path64" />
	<path
   fill="#c9e8fa"
   stroke="#c9e8fa"
   stroke-width="0.5"
   d="m 734.878,904.467 c 10.941,-9.184 21.466,-18.887 32.502,-27.938 -1.106,2.305 -2.239,4.951 -1.323,7.53 1.361,4.582 3.817,8.73 5.678,13.114 2.56,6.245 6.226,12.009 8.078,18.547 3.647,8.409 7.483,16.752 10.96,25.246 -3.439,5.395 -5.149,11.612 -7.568,17.479 -18.906,46.977 -37.547,94.047 -56.377,141.062 -2.447,5.367 -3.723,11.253 -6.737,16.374 -2.305,-3.807 -6.633,-5.281 -10.261,-7.417 -7.256,-4.346 -15.401,-6.897 -22.591,-11.366 -7.398,-3.156 -14.295,-7.294 -21.589,-10.657 -16.44,-8.059 -32.455,-16.988 -49.178,-24.452 -5.612,-2.872 -11.234,-5.716 -16.846,-8.579 -0.406,0.51 -1.219,1.54 -1.625,2.06 -2.608,-5.641 -6.151,-10.95 -7.804,-16.959 8.57,-11.772 18.15,-22.836 27.041,-34.391 4.393,-5.367 8.475,-10.979 12.991,-16.242 1.417,-1.672 3.052,-3.505 2.57,-5.877 1.313,-2.154 3.307,-3.723 5.263,-5.253 2.57,-2.022 4.186,-4.932 6.491,-7.19 0.472,2.447 1.209,4.866 2.466,7.048 22.166,41.799 44.482,83.503 66.591,125.321 2.06,3.807 4.015,7.691 6.557,11.224 -0.794,-8.815 -2.598,-17.498 -3.997,-26.219 -7.256,-44.246 -14.947,-88.426 -22.184,-132.681 -0.709,-4.214 -1.427,-8.437 -2.258,-12.623 5.943,-5.745 12.547,-10.733 18.547,-16.411 8.04,-7.106 16.515,-13.711 24.603,-20.75 z"
   id="path66" />
	<path
   fill="#02b3e5"
   stroke="#02b3e5"
   stroke-width="0.5"
   d="m 969.372,914.086 c 4.734,-2.069 9.136,-5.782 14.579,-5.518 5.13,0.265 10.251,0.945 15.382,1.332 61.952,5.971 123.885,12.122 185.856,17.999 9.675,0.765 19.322,2.4 29.063,2.334 0.34,0.236 1.03,0.727 1.37,0.964 -22.043,2.428 -44.161,4.034 -66.241,6.009 -5.971,0.727 -12.094,-0.104 -17.923,1.54 -31.51,2.787 -63.057,5.584 -94.577,8.314 -8.56,1.606 -17.347,0.935 -25.907,2.57 -24.868,1.606 -49.669,4.176 -74.508,6.226 -5.14,0.425 -10.317,0.567 -15.41,1.389 -7.247,1.115 -14.607,0.86 -21.872,1.738 -5.367,0.68 -10.78,0.652 -16.175,0.813 -2.334,0.019 -4.667,-0.057 -6.982,-0.161 1.389,-0.813 2.787,-1.606 4.233,-2.324 29.787,-14.229 59.351,-28.93 89.112,-43.225 z"
   id="path68" />
	<path
   fill="#b4e3f7"
   stroke="#b4e3f7"
   stroke-width="0.5"
   d="m 1268.436,926.708 c 2.872,-0.472 5.792,-0.217 8.607,0.501 -4.809,1.653 -8.296,5.291 -11.536,9.032 -1.058,1.578 -2.948,1.748 -4.658,1.946 0.897,-1.918 1.559,-3.93 2.211,-5.933 -8.636,2.145 -16.856,5.631 -25.321,8.314 -39.437,13.464 -78.855,26.937 -118.273,40.438 -22.572,7.785 -45.247,15.278 -67.744,23.29 -0.331,0.076 -0.992,0.227 -1.323,0.302 0.265,0.482 0.794,1.455 1.058,1.946 -4.932,2.995 -10.828,3.241 -16.317,4.507 -37.471,7.776 -74.896,15.807 -112.358,23.649 -2.929,0.567 -5.82,1.257 -8.702,2.003 2.929,7.256 7.606,13.615 11.47,20.389 20.077,34.354 40.514,68.509 60.705,102.796 1.625,2.731 3.656,5.489 3.704,8.806 0.104,4.488 -0.085,8.985 0.104,13.492 -0.576,20.947 -1.002,41.903 -1.502,62.859 -0.841,7.615 -0.293,15.287 -0.954,22.921 -2.872,-5.962 -4.507,-12.406 -6.699,-18.613 -19.633,-58.891 -39.059,-117.847 -58.645,-176.757 -2.636,0.746 -5.253,1.521 -7.861,2.353 -6.463,-21.088 -12.5,-42.3 -18.868,-63.416 -1.672,-5.253 -2.853,-10.648 -4.904,-15.769 0.671,8.314 3.222,16.317 4.649,24.509 18.074,83.72 36.111,167.45 54.119,251.18 0.501,2.315 0.935,4.658 1.37,7.011 -16.43,-1.332 -32.899,-2.542 -49.376,-3.373 -5.045,-0.737 -10.289,-0.463 -15.183,-1.927 -3.354,-2.286 -5.82,-5.593 -8.844,-8.248 -0.255,-37.727 -0.076,-75.463 -0.104,-113.189 -0.217,-4.101 0.945,-8.74 -1.691,-12.283 0.321,0 0.964,0.01 1.285,0.01 -0.406,-1.153 -0.756,-2.296 -1.172,-3.411 0.888,-1.228 1.587,-2.608 1.625,-4.138 1.172,-12.576 0.369,-25.217 0.595,-37.821 0.208,-12.292 -0.047,-24.594 0.18,-36.876 1.19,-10.355 0.624,-20.767 0.737,-31.151 0.104,-15.429 -0.057,-30.858 0.142,-46.287 0,-3.392 -0.047,-6.793 -0.746,-10.109 1.19,-0.548 2.381,-1.096 3.6,-1.606 -0.246,-2.277 -0.312,-4.554 -0.605,-6.812 0.453,-0.359 1.351,-1.087 1.795,-1.446 5.395,-0.161 10.809,-0.132 16.175,-0.813 7.266,-0.879 14.626,-0.624 21.872,-1.738 5.093,-0.822 10.27,-0.964 15.41,-1.389 24.839,-2.05 49.641,-4.62 74.508,-6.226 8.56,-1.635 17.347,-0.964 25.907,-2.57 31.519,-2.731 63.067,-5.527 94.577,-8.314 5.829,-1.644 11.952,-0.813 17.923,-1.54 22.08,-1.975 44.199,-3.581 66.241,-6.009 -0.34,-0.236 -1.03,-0.727 -1.37,-0.964 4.819,-0.274 9.618,0.699 14.446,0.236 13.239,-1.371 26.542,-2.032 39.741,-3.762 z"
   id="path70" />
	<path
   fill="#00afd8"
   stroke="#00afd8"
   stroke-width="0.5"
   d="m 1237.739,940.569 c 8.465,-2.683 16.685,-6.17 25.321,-8.314 -0.652,2.003 -1.313,4.015 -2.211,5.933 -5.433,10.714 -10.62,21.551 -15.807,32.388 -3.713,7.247 -6.642,14.975 -11.555,21.542 -6.396,8.787 -12.68,17.659 -18.982,26.502 -11.253,0 -22.383,-1.805 -33.588,-2.485 -32.558,-3.005 -65.136,-5.801 -97.685,-8.853 -10.563,-0.104 -21.126,-1.02 -31.51,-2.986 22.496,-8.012 45.172,-15.504 67.744,-23.29 39.418,-13.5 78.836,-26.973 118.273,-40.437 z"
   id="path72" />
	<path
   fill="#76d0ea"
   stroke="#76d0ea"
   stroke-width="0.5"
   d="m 783.205,958.445 c 2.419,-5.867 4.129,-12.084 7.568,-17.479 11.98,28.363 24.679,56.415 36.744,84.741 16.175,36.734 32.124,73.554 48.167,110.336 0.416,1.115 0.765,2.258 1.172,3.411 -0.321,0 -0.964,-0.01 -1.285,-0.01 -8.428,-0.274 -16.685,-2.343 -25.028,-3.477 -35.317,-5.593 -70.625,-11.253 -105.933,-16.865 -7.521,-0.935 -14.89,-2.986 -22.487,-3.288 3.6,5.744 9.032,9.977 13.653,14.862 25.926,26.049 51.625,52.305 77.522,78.382 17.12,17.517 34.59,34.703 51.54,52.39 4.138,3.798 7.587,8.381 12.198,11.659 0.18,-2.74 0.35,-5.471 0.331,-8.192 3.023,2.655 5.489,5.962 8.844,8.248 4.894,1.464 10.138,1.19 15.183,1.927 16.478,0.831 32.946,2.041 49.376,3.373 -0.435,-2.353 -0.869,-4.696 -1.37,-7.011 -18.008,-83.73 -36.045,-167.46 -54.119,-251.18 -1.427,-8.192 -3.978,-16.194 -4.649,-24.509 2.05,5.121 3.231,10.516 4.904,15.769 6.368,21.117 12.406,42.328 18.868,63.416 2.608,-0.831 5.225,-1.606 7.861,-2.353 19.586,58.909 39.012,117.866 58.645,176.757 2.192,6.208 3.827,12.651 6.699,18.613 0.661,-7.634 0.113,-15.306 0.954,-22.921 0.113,4.478 0.047,8.966 -0.132,13.454 -0.35,4.516 2.116,8.645 1.927,13.152 -0.161,23.951 -0.019,47.902 -0.076,71.854 -0.019,4.299 -0.142,8.626 0.302,12.925 -5.14,-3.486 -9.571,-7.852 -14.465,-11.64 -8.777,-6.954 -17.432,-14.059 -26.039,-21.202 -2.806,-2.561 -6.737,-2.731 -10.308,-2.948 -12.538,-12.954 -25.227,-25.765 -37.991,-38.511 -2.258,-2.202 -4.214,-4.762 -6.831,-6.567 -2.022,-0.605 -4.157,-0.406 -6.217,-0.463 0.444,1.124 0.916,2.277 1.389,3.439 -6.491,-1.124 -12.509,-6.141 -19.293,-3.949 -42.328,7.936 -84.779,15.249 -127.135,23.073 -5.414,1.153 -11.139,1.285 -16.166,3.817 -7.899,-0.066 -13.936,5.395 -20.673,8.655 -15.779,8.787 -31.604,17.479 -47.373,26.304 -4.885,2.976 -10.204,5.215 -14.862,8.579 85.61,11.357 171.343,21.778 256.991,32.842 3.552,0.378 7.096,0.945 10.591,1.71 -1.606,1.36 -3.231,2.721 -4.96,3.93 -3.543,2.116 -7.001,4.365 -10.346,6.784 -16.034,10.828 -32.039,21.674 -48.035,32.54 -12.387,8.04 -24.272,16.846 -36.886,24.537 -1.172,-0.945 -2.39,-1.795 -3.6,-2.646 -3.959,2.816 -3.023,7.889 -3.439,12.113 -0.142,-2.608 -0.35,-5.206 -0.576,-7.785 -5.716,3.628 -10.336,8.655 -15.561,12.916 -16.119,13.483 -31.907,27.324 -47.855,41.005 -10.676,9.146 -21.599,18.008 -32.058,27.409 -3.411,2.976 -7.218,5.603 -9.76,9.439 -0.671,0.085 -2.022,0.255 -2.693,0.35 1.994,-9.486 4.79,-18.764 7.275,-28.118 3.77,-14.692 7.804,-29.318 11.735,-43.963 0.047,0.51 0.161,1.54 0.208,2.06 2.976,-0.964 5.839,-2.23 8.551,-3.779 4.535,-2.655 9.543,-4.469 13.813,-7.578 -3.921,-1.398 -8.003,-2.239 -12.018,-3.25 2.627,-3.6 6.529,-5.849 9.968,-8.56 6.869,-5.31 13.709,-10.658 20.559,-15.986 4.233,-3.08 8.787,-5.678 13.01,-8.768 -40.769,-22.988 -81.661,-45.795 -122.42,-68.811 -1.927,-1.001 -3.817,-2.315 -6.009,-2.523 -1.389,0.416 -2.305,1.653 -3.42,2.532 -2.617,2.532 -6.321,3.241 -9.618,4.507 -8.059,2.919 -16.071,6 -24.112,8.966 -5.735,2.438 -11.952,3.77 -17.3,7.077 -2.683,-1.124 -4.979,-2.919 -7.398,-4.469 -1.549,-0.624 -1.805,-2.258 -1.927,-3.713 -2.532,0.17 -4.989,0.784 -7.436,1.398 0.076,-3.118 0.274,-6.217 0.246,-9.316 -3.713,-1.398 -7.502,-2.627 -11.149,-4.186 -2.759,-1.493 -4.677,-4.1 -7.029,-6.104 -3.978,-3.458 -6.208,-8.324 -9.099,-12.613 -2.05,-3.458 -4.535,-6.68 -6.17,-10.365 1.852,-8.985 4.11,-17.961 6.822,-26.71 8.097,-12.916 16.6,-25.595 24.83,-38.426 0.794,-1.172 1.002,-2.579 1.294,-3.893 0.208,0.472 0.633,1.408 0.85,1.88 10.28,0.557 20.569,1.096 30.858,1.389 7.851,1.068 15.779,0.68 23.649,1.474 15.769,0.435 31.491,1.88 47.279,2.201 9.581,1.162 19.265,0.709 28.855,1.927 1.89,0.831 3.864,1.663 6,1.531 7.681,-0.17 15.363,0.746 23.025,0 15.259,-0.038 30.461,1.493 45.701,2.116 1.89,0.746 3.817,1.625 5.915,1.625 7.029,0.094 14.078,0.765 21.098,0.028 14.437,-0.368 28.779,1.833 43.207,2.022 8.258,0.019 16.487,1.493 24.754,0.737 -6.463,-3.089 -13.426,-4.875 -20.134,-7.303 -55.546,-19.095 -111.082,-38.246 -166.657,-57.256 -3.562,-1.276 -7.162,-2.438 -10.809,-3.42 1.927,4.563 4.261,8.938 6.321,13.445 -8.399,-2.929 -16.345,-6.973 -24.584,-10.299 -36.999,-15.854 -73.923,-31.888 -110.922,-47.723 -7.88,-3.704 -16.138,-6.463 -24.055,-10.043 -1.871,-1.001 -3.742,-2.012 -5.622,-2.976 -0.208,-2.173 -0.539,-4.318 -0.916,-6.453 -1.209,1.276 -2.419,2.551 -3.619,3.846 -5.971,-11.801 -11.404,-23.876 -17.517,-35.601 -0.907,-1.398 0.51,-2.542 1.502,-3.288 4.271,-3.449 8.418,-7.039 12.349,-10.856 30.981,-27.712 62.254,-55.083 93.282,-82.728 11.026,-10.043 22.534,-19.577 33.352,-29.847 0.482,2.372 -1.153,4.204 -2.57,5.877 -4.516,5.263 -8.598,10.875 -12.991,16.242 -8.891,11.555 -18.471,22.619 -27.041,34.391 1.653,6.009 5.197,11.319 7.804,16.959 21.655,43.018 43.32,86.035 64.985,129.053 3.137,5.886 5.669,12.103 9.203,17.782 16.544,-28.486 31.566,-57.833 47.902,-86.423 3.014,-5.121 4.289,-11.007 6.737,-16.374 18.828,-47.012 37.469,-94.082 56.375,-141.059 z"
   id="path74" />
	<path
   fill="#76d0ea"
   stroke="#76d0ea"
   stroke-width="0.5"
   d="m 653.283,974.091 c 12.878,-10.743 25.406,-21.91 38.445,-32.464 0.831,4.186 1.55,8.409 2.258,12.623 7.237,44.255 14.928,88.435 22.184,132.681 1.398,8.721 3.203,17.404 3.997,26.219 -2.542,-3.534 -4.497,-7.417 -6.557,-11.224 -22.109,-41.818 -44.425,-83.522 -66.591,-125.321 -1.257,-2.183 -1.994,-4.601 -2.466,-7.048 3.817,-2.523 7.483,-5.244 11.092,-8.04 -0.661,5.839 -5.093,10.214 -6.831,15.712 1.521,-1.002 3.042,-2.004 4.469,-3.138 z"
   id="path76" />
	<path
   fill="#0198b7"
   stroke="#0198b7"
   stroke-width="0.5"
   d="m 1050.4,1004.599 c 0.331,-0.076 0.992,-0.227 1.323,-0.302 10.384,1.965 20.947,2.882 31.51,2.986 32.549,3.052 65.126,5.848 97.685,8.853 11.206,0.68 22.336,2.485 33.588,2.485 -10.346,14.494 -20.72,28.959 -31.037,43.462 -7.984,10.705 -15.202,21.977 -23.488,32.455 -7.209,-5.225 -13.719,-11.328 -20.71,-16.827 -12.982,-10.289 -25.671,-20.928 -38.416,-31.491 -13.067,-10.875 -26.36,-21.466 -39.304,-32.492 -1.786,-1.464 -3.76,-2.664 -5.65,-3.959 -1.445,-1.153 -2.91,-2.239 -4.441,-3.222 -0.266,-0.493 -0.795,-1.466 -1.06,-1.948 z"
   id="path78" />
	<path
   fill="#76d0ea"
   stroke="#76d0ea"
   stroke-width="0.5"
   d="m 1051.458,1006.546 c 1.531,0.983 2.995,2.069 4.441,3.222 3.241,6.047 7.606,11.385 11.451,17.045 16.884,24.055 33.749,48.12 50.652,72.156 3.543,5.234 7.691,10.072 10.591,15.731 -0.501,0.18 -1.512,0.557 -2.012,0.746 -25.397,4.715 -50.926,8.758 -76.304,13.587 0.368,-6.718 -0.057,-13.445 0.51,-20.153 1.02,-11.905 -0.095,-23.885 0.964,-35.79 1.115,-13.124 -0.028,-26.323 1.172,-39.437 0.198,-8.229 0.482,-16.459 0.586,-24.679 -3.222,4.384 -4.62,9.713 -6.774,14.635 -14.664,35.714 -29.403,71.409 -43.981,107.161 -3.949,10.44 -9.146,20.408 -12.311,31.132 1.332,-0.51 2.683,-1.011 4.025,-1.559 -0.18,0.387 -0.529,1.143 -0.699,1.521 -1.294,3.137 -3.156,6.17 -3.288,9.656 -0.236,3.543 -0.255,7.105 -0.416,10.667 -0.189,-4.507 0,-9.004 -0.104,-13.492 -0.047,-3.316 -2.079,-6.075 -3.704,-8.806 -20.191,-34.288 -40.627,-68.443 -60.705,-102.796 -3.864,-6.774 -8.541,-13.133 -11.47,-20.389 2.882,-0.746 5.773,-1.436 8.702,-2.003 37.462,-7.842 74.886,-15.873 112.358,-23.649 5.489,-1.265 11.384,-1.511 16.316,-4.506 z"
   id="path80" />
	<path
   fill="#c9e8fa"
   stroke="#c9e8fa"
   stroke-width="0.5"
   d="m 1046.734,1023.609 c 2.154,-4.923 3.552,-10.251 6.774,-14.635 -0.104,8.22 -0.387,16.449 -0.586,24.679 -1.2,13.114 -0.057,26.313 -1.172,39.437 -1.058,11.905 0.057,23.885 -0.964,35.79 -0.567,6.708 -0.142,13.435 -0.51,20.153 -16.931,9.174 -33.654,18.726 -50.567,27.938 -1.814,1.02 -3.553,2.164 -5.244,3.373 -1.342,0.548 -2.693,1.049 -4.025,1.559 3.165,-10.724 8.362,-20.692 12.311,-31.132 14.58,-35.752 29.32,-71.448 43.983,-107.162 z"
   id="path82" />
	<path
   fill="#02b3e5"
   stroke="#02b3e5"
   stroke-width="0.5"
   d="m 1055.899,1009.768 c 1.89,1.294 3.864,2.494 5.65,3.959 12.944,11.026 26.238,21.617 39.304,32.492 12.746,10.563 25.434,21.202 38.416,31.491 6.992,5.499 13.502,11.602 20.71,16.827 -4.195,11.404 -8.73,22.704 -13.445,33.91 -4.734,-3.203 -8.995,-6.992 -13.464,-10.516 -1.833,-1.55 -4.129,-2.324 -6.491,-2.485 0.501,-0.189 1.512,-0.567 2.012,-0.746 -2.901,-5.659 -7.048,-10.497 -10.591,-15.731 -16.903,-24.036 -33.768,-48.101 -50.652,-72.156 -3.843,-5.66 -8.208,-10.998 -11.449,-17.045 z"
   id="path84" />
	<path
   fill="#d0edfb"
   stroke="#d0edfb"
   stroke-width="0.5"
   d="m 598.002,1055.469 c 0.406,-0.52 1.219,-1.549 1.625,-2.06 5.612,2.863 11.234,5.707 16.846,8.579 16.723,7.464 32.738,16.393 49.178,24.452 7.294,3.364 14.191,7.502 21.589,10.657 7.19,4.469 15.334,7.02 22.591,11.366 3.628,2.135 7.955,3.609 10.261,7.417 -16.336,28.59 -31.359,57.936 -47.902,86.423 -3.534,-5.678 -6.066,-11.895 -9.203,-17.782 -21.665,-43.017 -43.33,-86.035 -64.985,-129.052 z"
   id="path86" />
	<path
   fill="#d0edfb"
   stroke="#d0edfb"
   stroke-width="0.5"
   d="m 722.123,1115.814 c 7.596,0.302 14.966,2.353 22.487,3.288 35.308,5.612 70.616,11.272 105.933,16.865 8.343,1.134 16.6,3.203 25.028,3.477 2.636,3.543 1.474,8.182 1.691,12.283 0.028,37.727 -0.151,75.463 0.104,113.189 0.019,2.721 -0.151,5.452 -0.331,8.192 -4.611,-3.278 -8.059,-7.861 -12.198,-11.659 -16.95,-17.687 -34.42,-34.873 -51.54,-52.39 -25.897,-26.077 -51.597,-52.333 -77.522,-78.382 -4.62,-4.885 -10.053,-9.118 -13.652,-14.863 z"
   id="path88" />
	<path
   fill="#0198b7"
   stroke="#0198b7"
   stroke-width="0.5"
   d="m 1050.277,1129.032 c 25.378,-4.828 50.907,-8.872 76.304,-13.587 2.362,0.161 4.658,0.935 6.491,2.485 4.469,3.524 8.73,7.313 13.464,10.516 -2.759,21.183 -6.349,42.262 -8.966,63.464 -0.557,3.76 -1.276,7.492 -1.927,11.243 -18.792,3.524 -37.443,7.776 -56.283,11.017 -13.331,-4.762 -26.512,-9.958 -39.758,-14.985 -5.3,-1.786 -8.834,-6.311 -13.19,-9.543 -4.989,-3.808 -9.429,-8.248 -14.371,-12.103 -6.34,-4.932 -12.396,-10.214 -18.273,-15.675 0.17,-0.378 0.52,-1.134 0.699,-1.521 1.691,-1.209 3.43,-2.353 5.244,-3.373 16.912,-9.211 33.635,-18.764 50.566,-27.938 z"
   id="path90" />
	<path
   fill="#d0edfb"
   stroke="#d0edfb"
   stroke-width="0.5"
   d="m 514.489,1149.129 c 1.861,-0.066 3.723,0.179 5.499,0.775 7.918,3.581 16.175,6.34 24.055,10.043 36.999,15.835 73.923,31.869 110.922,47.723 8.239,3.326 16.185,7.37 24.584,10.299 -2.06,-4.507 -4.393,-8.881 -6.321,-13.445 3.647,0.983 7.247,2.145 10.809,3.42 55.574,19.01 111.111,38.161 166.657,57.256 6.708,2.428 13.672,4.214 20.134,7.303 -8.267,0.756 -16.497,-0.718 -24.754,-0.737 -14.427,-0.189 -28.77,-2.39 -43.207,-2.022 -6.113,-1.446 -12.424,-0.671 -18.613,-1.38 -2.797,-0.302 -5.603,-0.321 -8.399,-0.274 -15.24,-0.624 -30.442,-2.154 -45.701,-2.116 -6.075,-1.389 -12.339,-0.595 -18.471,-1.455 -3.515,-0.463 -7.048,-0.387 -10.554,-0.076 -9.59,-1.219 -19.274,-0.765 -28.855,-1.927 -15.788,-0.321 -31.51,-1.767 -47.279,-2.201 -7.87,-0.794 -15.797,-0.406 -23.649,-1.474 -10.289,-0.293 -20.578,-0.831 -30.858,-1.389 -0.217,-0.472 -0.643,-1.408 -0.85,-1.88 -4.535,-14.163 -7.833,-28.723 -12.16,-42.952 -2.976,-4.488 -7.322,-7.899 -10.374,-12.339 -1.606,-4.611 -1.994,-9.562 -3.553,-14.182 -4.752,-5.083 -11.498,-8.296 -14.928,-14.55 -4.572,-7.559 -10.024,-14.597 -14.134,-22.42 z"
   id="path92" />
	<path
   fill="#02b3e5"
   stroke="#02b3e5"
   stroke-width="0.5"
   d="m 990.48,1171.521 c 0.132,-3.486 1.994,-6.519 3.288,-9.656 5.877,5.461 11.933,10.743 18.273,15.675 4.941,3.855 9.382,8.296 14.371,12.103 4.356,3.231 7.889,7.757 13.19,9.543 13.246,5.026 26.427,10.223 39.758,14.985 1.644,0.737 3.231,1.635 4.828,2.523 -3.156,4.97 -6.595,9.76 -9.666,14.777 -2.73,4.223 -5.612,8.362 -8.286,12.632 -4.337,6.699 -8.881,13.265 -13.209,19.974 -20.436,31.084 -41.052,62.046 -61.309,93.244 -0.283,-0.227 -0.85,-0.671 -1.134,-0.888 -0.444,-4.299 -0.321,-8.626 -0.302,-12.925 0.057,-23.951 -0.085,-47.902 0.076,-71.854 0.189,-4.507 -2.277,-8.635 -1.927,-13.152 0.18,-4.488 0.246,-8.976 0.132,-13.454 0.501,-20.956 0.926,-41.912 1.502,-62.859 0.16,-3.563 0.178,-7.125 0.415,-10.668 z"
   id="path94" />
	<path
   fill="#76d0ea"
   stroke="#76d0ea"
   stroke-width="0.5"
   d="m 1135.642,1203.153 c 0.652,-3.751 1.37,-7.483 1.927,-11.243 6.151,3.76 11.177,9.259 17.772,12.264 2.069,3.345 5.782,5.036 8.759,7.445 14.994,11.489 30.319,22.543 45.342,34.004 2.372,1.871 4.96,3.458 7.493,5.13 -3.912,1.342 -5.962,5.178 -8.806,7.899 -7.596,7.672 -14.975,15.561 -22.515,23.29 -6.189,-3.997 -13.218,-6.368 -19.756,-9.675 -25.387,-11.442 -50.708,-23.016 -76.049,-34.524 -5.017,-2.286 -9.911,-4.923 -15.287,-6.274 3.071,-5.017 6.51,-9.807 9.666,-14.777 -1.597,-0.888 -3.184,-1.786 -4.828,-2.523 18.838,-3.24 37.489,-7.492 56.282,-11.016 z"
   id="path96" />
	<path
   fill="#b4e3f7"
   stroke="#b4e3f7"
   stroke-width="0.5"
   d="m 1164.1,1211.619 c -2.976,-2.409 -6.689,-4.1 -8.759,-7.445 19.133,0.699 38.275,1.965 57.388,3.184 19.255,4.204 38.435,8.796 57.672,13.133 4.327,0.624 7.606,3.723 11.272,5.839 6.529,4.318 13.388,8.116 19.869,12.528 l 0.047,0.869 c 0.463,11.281 0.066,22.581 0.198,33.872 -0.142,8.466 0.302,16.95 -0.227,25.416 -2.334,-0.217 -4.658,-0.406 -6.954,-0.737 l -0.879,-0.151 c -12.604,-2.485 -25.255,-4.752 -37.85,-7.228 -2.787,-0.624 -5.546,-1.37 -8.324,-1.994 -6.718,-1.36 -12.878,-4.459 -19.416,-6.378 -0.302,0.359 -0.888,1.077 -1.181,1.436 0.425,-4.856 1.266,-9.675 1.502,-14.541 0.331,-3.118 -2.022,-5.499 -3.647,-7.851 0.576,-1.039 1.181,-2.06 1.795,-3.061 -2.079,-1.417 -4.233,-2.693 -6.406,-3.921 -1.077,-1.304 -2.145,-2.617 -3.269,-3.836 -2.532,-1.672 -5.121,-3.26 -7.493,-5.13 -15.019,-11.461 -30.344,-22.515 -45.338,-34.004 z"
   id="path98" />
	<path
   fill="#b4e3f7"
   stroke="#b4e3f7"
   stroke-width="0.5"
   d="m 1066.235,1244.102 c 2.674,-4.271 5.556,-8.409 8.286,-12.632 5.376,1.351 10.27,3.987 15.287,6.274 25.34,11.508 50.661,23.082 76.049,34.524 6.538,3.307 13.568,5.678 19.756,9.675 -1.153,1.247 -2.249,2.551 -3.335,3.864 0.718,1.03 1.436,2.078 2.173,3.137 -0.038,4.223 -1.436,8.229 -2.778,12.179 -7.483,24.065 -14.786,48.195 -22.326,72.241 -0.831,2.504 -1.455,5.102 -1.398,7.766 -1.502,-3.874 -3.845,-7.313 -6.359,-10.582 -11.149,-16.336 -21.353,-33.286 -32.653,-49.527 -6.302,-10.28 -13.483,-19.973 -20.011,-30.083 -3.619,-6.878 -8.73,-12.765 -12.746,-19.378 -4.214,-6.491 -8.692,-12.802 -12.746,-19.397 -1.87,-3.129 -4.44,-5.728 -7.199,-8.061 z"
   id="path100" />
	<path
   fill="#02b3e5"
   stroke="#02b3e5"
   stroke-width="0.5"
   d="m 1301.59,1239.727 c 12.793,12.018 26.171,23.422 39.21,35.176 2.693,2.627 6.755,4.582 7.228,8.74 6.188,27.929 12.906,55.754 18.396,83.843 -6.803,0.907 -13.709,0.142 -20.54,0.387 -5.433,-0.274 -11.177,0.954 -16.27,-1.436 l -0.576,-0.397 c -7.483,-5.962 -16.175,-10.176 -24.263,-15.24 1.115,-13.171 2.967,-26.266 4.016,-39.437 -4.904,2.532 -9.278,5.943 -13.983,8.806 -0.557,-7.285 -0.331,-14.598 -0.198,-21.891 2.296,0.331 4.62,0.52 6.954,0.737 0.529,-8.466 0.085,-16.95 0.227,-25.416 -0.135,-11.291 0.262,-22.591 -0.201,-33.872 z"
   id="path102" />
	<path
   fill="#c9e8fa"
   stroke="#c9e8fa"
   stroke-width="0.5"
   d="m 1066.235,1244.102 c 2.759,2.334 5.329,4.932 7.199,8.059 4.053,6.595 8.532,12.906 12.746,19.397 4.016,6.614 9.127,12.5 12.746,19.378 6.529,10.11 13.709,19.803 20.011,30.083 11.3,16.242 21.504,33.192 32.653,49.527 2.513,3.269 4.856,6.708 6.359,10.582 2.92,4.488 -0.397,9.307 -1.616,13.776 -7.889,25.094 -16.147,50.075 -24.027,75.179 -0.378,1.172 -0.727,2.353 -1.03,3.571 -1.455,-0.605 -2.919,-1.313 -4.507,-1.096 0.642,-0.435 1.313,-0.85 1.984,-1.257 -17.252,-17.054 -34.571,-34.061 -51.549,-51.398 -0.52,-0.52 -1.039,-1.011 -1.568,-1.464 0.576,-4.979 -1.087,-9.798 -1.55,-14.692 -1.332,-12.594 -2.797,-25.17 -4.762,-37.67 -1.105,-10.091 -1.984,-20.219 -3.949,-30.177 -1.398,-10.015 -1.578,-20.2 -4.063,-30.045 -1.568,-14.125 -2.22,-28.448 -5.414,-42.347 -0.973,0.17 -1.927,0.359 -2.872,0.567 4.328,-6.708 8.873,-13.274 13.209,-19.973 z"
   id="path104" />
	<path
   fill="#02b3e5"
   stroke="#02b3e5"
   stroke-width="0.5"
   d="m 1208.128,1258.652 c 2.844,-2.721 4.894,-6.557 8.806,-7.899 1.124,1.219 2.192,2.532 3.269,3.836 1.408,2.409 2.882,4.781 4.611,6.982 1.625,2.353 3.978,4.734 3.647,7.851 -0.236,4.866 -1.077,9.684 -1.502,14.541 -1.474,16.43 -3.307,32.823 -4.818,49.244 -0.274,2.211 -0.671,4.422 -1.096,6.633 -4.611,-5.848 -9.259,-11.678 -13.152,-18.027 -7.738,-11.017 -15.816,-21.778 -23.441,-32.87 -0.737,-1.058 -1.455,-2.107 -2.173,-3.137 1.087,-1.313 2.183,-2.617 3.335,-3.864 7.539,-7.729 14.918,-15.618 22.514,-23.29 z"
   id="path106" />
	<path
   fill="#6ed1eb"
   stroke="#6ed1eb"
   stroke-width="0.5"
   d="m 1220.203,1254.589 c 2.173,1.228 4.327,2.504 6.406,3.921 -0.614,1.001 -1.219,2.022 -1.795,3.061 -1.729,-2.201 -3.203,-4.572 -4.611,-6.982 z"
   id="path108" />
	<path
   fill="#d0edfb"
   stroke="#d0edfb"
   stroke-width="0.5"
   d="m 1053.027,1264.075 c 0.945,-0.208 1.899,-0.397 2.872,-0.567 3.193,13.898 3.845,28.222 5.414,42.347 2.485,9.845 2.664,20.03 4.063,30.045 1.965,9.958 2.844,20.087 3.949,30.177 1.965,12.5 3.43,25.076 4.762,37.67 0.463,4.894 2.126,9.713 1.55,14.692 -16.771,-10.941 -33.05,-22.591 -49.669,-33.74 -7.899,-5.707 -16.345,-10.657 -23.923,-16.78 0.085,-0.406 0.255,-1.219 0.34,-1.616 -3.269,-3.335 -7.048,-6.075 -10.667,-8.985 20.256,-31.197 40.872,-62.158 61.309,-93.243 z"
   id="path110" />
	<path
   fill="#8dc7d9"
   stroke="#8dc7d9"
   stroke-width="0.5"
   d="m 701.129,1264.444 c 3.505,-0.312 7.039,-0.387 10.554,0.076 6.132,0.86 12.396,0.066 18.471,1.455 -7.662,0.746 -15.344,-0.17 -23.025,0 -2.136,0.132 -4.111,-0.7 -6,-1.531 z"
   id="path112" />
	<path
   fill="#8cc4d6"
   stroke="#8cc4d6"
   stroke-width="0.5"
   d="m 775.854,1268.091 c 2.797,-0.047 5.603,-0.028 8.399,0.274 6.189,0.709 12.5,-0.066 18.613,1.38 -7.02,0.737 -14.068,0.066 -21.098,-0.028 -2.096,0 -4.024,-0.88 -5.914,-1.626 z"
   id="path114" />
	<path
   fill="#02b3e5"
   stroke="#02b3e5"
   stroke-width="0.5"
   d="m 870.828,1274.591 c 6.784,-2.192 12.802,2.825 19.293,3.949 -0.472,-1.162 -0.945,-2.315 -1.389,-3.439 2.06,0.057 4.195,-0.142 6.217,0.463 2.617,1.805 4.573,4.365 6.831,6.567 12.764,12.746 25.453,25.557 37.991,38.511 -16.771,-1.124 -33.456,-3.279 -50.236,-4.176 -11.262,-1.644 -22.657,-2.022 -33.947,-3.382 -9.684,-1.88 -19.624,-1.143 -29.365,-2.589 -32.899,-3.052 -65.816,-5.792 -98.696,-9.014 5.026,-2.532 10.752,-2.664 16.166,-3.817 42.356,-7.824 84.807,-15.137 127.135,-23.073 z"
   id="path116" />
	<path
   fill="#d0edfb"
   stroke="#d0edfb"
   stroke-width="0.5"
   d="m 1228.14,1282.527 c 6.538,1.918 12.698,5.017 19.416,6.378 1.219,0.576 2.296,1.474 2.617,2.882 3.193,10.128 6.217,20.323 9.354,30.48 0.444,1.03 0.624,3.005 2.258,2.75 6.614,0.189 13.237,-0.047 19.851,0.085 2.126,-0.085 4.346,0.198 6.425,-0.416 2.447,-1.19 4.516,-2.985 6.746,-4.516 4.705,-2.863 9.08,-6.274 13.983,-8.806 -1.049,13.171 -2.901,26.266 -4.016,39.437 -0.038,0.643 -0.104,1.937 -0.142,2.579 -3.826,0.123 -7.587,-0.605 -11.281,-1.474 -13.946,-2.598 -28.023,-4.497 -41.884,-7.502 0.576,-1.257 1.124,-2.523 1.701,-3.77 -10.223,-2.967 -20.796,-4.497 -31.028,-7.426 1.512,-16.421 3.345,-32.814 4.818,-49.244 0.293,-0.359 0.879,-1.078 1.182,-1.437 z"
   id="path118" />
	<path
   fill="#76d0ea"
   stroke="#76d0ea"
   stroke-width="0.5"
   d="m 1184.451,1288.943 c 7.625,11.092 15.703,21.854 23.441,32.87 3.893,6.349 8.541,12.179 13.152,18.027 0.425,-2.211 0.822,-4.422 1.096,-6.633 10.232,2.929 20.805,4.46 31.028,7.426 -0.576,1.247 -1.124,2.513 -1.701,3.77 -3.751,7.341 -7.398,14.739 -11.083,22.118 -2.626,5.414 -5.735,10.592 -7.851,16.241 12.179,1.36 24.301,3.222 36.47,4.743 5.565,0.907 11.272,1.115 16.686,2.872 -7.776,3.59 -15.769,6.671 -23.602,10.128 -8.078,3.581 -16.468,6.51 -24.178,10.856 -17.347,9.373 -34.741,18.651 -52.069,28.071 -18.244,9.505 -35.506,20.758 -53.533,30.65 7.88,-25.104 16.138,-50.085 24.027,-75.179 1.219,-4.469 4.535,-9.288 1.616,-13.776 -0.057,-2.664 0.567,-5.263 1.398,-7.766 7.54,-24.046 14.843,-48.176 22.326,-72.241 1.341,-3.948 2.739,-7.954 2.777,-12.177 z"
   id="path120" />
	<path
   fill="#132816"
   stroke="#132816"
   stroke-width="0.5"
   d="m 1247.556,1288.905 c 2.778,0.624 5.537,1.37 8.324,1.994 -0.293,2.249 1.937,3.005 3.553,3.893 -0.123,2.91 1.124,5.612 1.956,8.352 1.786,5.225 3.335,10.525 5.225,15.712 4.573,-0.397 9.155,-0.85 13.738,-1.247 2.249,2.05 4.847,3.694 7.653,4.932 2.126,-1.852 5.471,-3.288 5.65,-6.491 0.425,-5.962 -0.01,-11.952 0.076,-17.923 l 0.879,0.151 c -0.132,7.294 -0.359,14.607 0.198,21.891 -2.23,1.531 -4.299,3.326 -6.746,4.516 -2.079,0.614 -4.299,0.331 -6.425,0.416 -6.614,-0.132 -13.237,0.104 -19.851,-0.085 -1.635,0.255 -1.814,-1.72 -2.258,-2.75 -3.137,-10.157 -6.16,-20.351 -9.354,-30.48 -0.323,-1.407 -1.4,-2.305 -2.618,-2.881 z"
   id="path122" />
	<path
   fill="#070a0f"
   stroke="#070a0f"
   stroke-width="0.5"
   d="m 1259.432,1294.791 c -1.616,-0.888 -3.845,-1.644 -3.553,-3.893 12.594,2.475 25.246,4.743 37.85,7.228 -0.085,5.971 0.35,11.961 -0.076,17.923 -0.179,3.203 -3.524,4.639 -5.65,6.491 -2.806,-1.238 -5.404,-2.882 -7.653,-4.932 1.814,-0.208 -5.2945,0.4111 -5.2945,0.4111 -5.981,-5.272 -2.2385,-10.2851 -8.5115,-15.1881 -2.73,-2.409 -3.24,-6.972 -7.114,-8.04 z"
   id="path124"
   sodipodi:nodetypes="cccccccccc" />
	<path
   fill="#fdfaf6"
   stroke="#fdfaf6"
   stroke-width="0.5"
   d="m 1261.388,1303.144 c -0.831,-2.74 -2.078,-5.442 -1.956,-8.352 3.874,1.068 4.384,5.631 7.115,8.04 6.274,4.904 1.5624,5.6982 8.5085,15.1871 -1.842,0.236 1.814,-0.208 0,0 -4.582,0.397 -3.8695,0.4399 -8.4425,0.8369 -1.89,-5.187 -3.44,-10.488 -5.225,-15.712 z"
   id="path126"
   sodipodi:nodetypes="ccccccc" />
	<path
   fill="#c7e8fb"
   stroke="#c7e8fb"
   stroke-width="0.5"
   d="m 706.854,1310.135 c 6.737,-3.26 12.774,-8.721 20.673,-8.655 32.88,3.222 65.797,5.962 98.696,9.014 9.741,1.445 19.681,0.709 29.365,2.589 11.291,1.36 22.685,1.739 33.947,3.382 16.78,0.898 33.466,3.052 50.236,4.176 3.571,0.217 7.502,0.387 10.308,2.948 8.607,7.143 17.262,14.248 26.039,21.202 4.894,3.789 9.325,8.154 14.465,11.64 0.284,0.217 0.85,0.661 1.134,0.888 3.619,2.91 7.398,5.65 10.667,8.985 -0.085,0.397 -0.255,1.209 -0.34,1.616 -6.151,-0.746 -12.037,1.606 -17.961,2.797 -11.13,1.408 -22.118,3.779 -33.135,5.877 -8.777,1.436 -17.526,3.014 -26.209,4.932 -5.782,1.001 -11.602,2.4 -17.498,1.975 1.729,-1.209 3.354,-2.57 4.96,-3.93 -3.496,-0.765 -7.039,-1.332 -10.591,-1.71 -85.648,-11.064 -171.381,-21.485 -256.991,-32.842 4.658,-3.363 9.977,-5.603 14.862,-8.579 15.769,-8.826 31.595,-17.518 47.373,-26.305 z"
   id="path128" />
	<path
   fill="#02b3e5"
   stroke="#02b3e5"
   stroke-width="0.5"
   d="m 1251.467,1344.404 c 13.86,3.005 27.938,4.904 41.884,7.502 3.694,0.869 7.455,1.597 11.281,1.474 1.039,1.124 2.079,2.277 3.08,3.486 7.294,8.834 14.012,18.159 21.807,26.578 0.028,0.557 0.075,1.663 0.104,2.22 -9.987,1.937 -20.058,3.269 -30.055,5.074 -4.601,0.68 -9.363,0.822 -13.879,-0.359 -5.414,-1.757 -11.121,-1.965 -16.686,-2.872 -12.169,-1.521 -24.291,-3.383 -36.47,-4.743 2.116,-5.65 5.225,-10.828 7.851,-16.241 3.685,-7.38 7.332,-14.778 11.083,-22.119 z"
   id="path130" />
	<path
   fill="#b4e3f7"
   stroke="#b4e3f7"
   stroke-width="0.5"
   d="m 637.684,1353.417 c 1.115,-0.879 2.031,-2.116 3.42,-2.532 2.192,0.208 4.082,1.521 6.009,2.523 40.76,23.016 81.651,45.824 122.42,68.811 -4.223,3.089 -8.777,5.688 -13.01,8.768 -1.899,-0.709 -3.912,-1.162 -5.943,-0.954 -13.738,0.831 -27.381,2.759 -41.119,3.675 -15.722,1.909 -31.538,2.872 -47.25,4.809 -6.434,0.973 -12.528,-1.748 -18.726,-2.939 -2.457,-0.642 -4.904,0.198 -7.228,0.926 -2.409,-2.164 -4.403,-4.715 -6.245,-7.351 -14.484,-18.358 -28.978,-36.734 -43.358,-55.187 5.348,-3.307 11.565,-4.639 17.3,-7.077 8.04,-2.967 16.052,-6.047 24.112,-8.966 3.297,-1.265 7.001,-1.974 9.618,-4.506 z"
   id="path132" />
	<path
   fill="#132817"
   stroke="#132817"
   stroke-width="0.5"
   d="m 1304.632,1353.38 c 0.038,-0.642 0.104,-1.937 0.142,-2.579 8.088,5.064 16.78,9.278 24.263,15.24 -7.653,-2.513 -13.634,-8.258 -21.022,-11.319 -0.076,0.529 -0.227,1.606 -0.302,2.145 -1.002,-1.211 -2.042,-2.363 -3.081,-3.487 z"
   id="path134" />
	<path
   fill="#a11c2d"
   stroke="#a11c2d"
   stroke-width="0.5"
   d="m 1308.015,1354.721 c 7.388,3.061 13.369,8.806 21.022,11.319 l 0.576,0.397 c 3.609,3.496 8.418,5.3 12.509,8.163 11.47,6.633 22.751,13.596 34.155,20.361 4.063,2.91 8.551,5.14 12.765,7.851 13.52,13.416 27.041,26.861 40.731,40.108 1.058,1.134 2.022,2.371 2.976,3.647 -6.963,-3.08 -13.152,-7.653 -19.747,-11.432 -26.455,-16.052 -52.815,-32.256 -79.308,-48.261 -1.55,-0.964 -2.948,-2.126 -4.176,-3.43 -7.795,-8.418 -14.513,-17.744 -21.807,-26.578 0.077,-0.539 0.228,-1.616 0.304,-2.145 z"
   id="path136" />
	<path
   fill="#540e19"
   stroke="#540e19"
   stroke-width="0.5"
   d="m 1373.264,1361.486 c 3.024,1.124 5.471,3.269 7.889,5.357 8.135,7.341 17.054,13.747 25.17,21.136 5.13,4.62 11.168,8.258 15.656,13.577 5.102,7.19 10.355,14.276 15.325,21.58 5.489,6.812 5.055,16.459 2.967,24.499 -4.195,-0.954 -6.094,-5.338 -9.127,-7.955 -6.415,-5.565 -12.642,-11.338 -18.471,-17.517 -5.414,-4.97 -10.752,-10.015 -15.835,-15.315 -2.22,-1.89 -4.526,-4.875 -7.795,-4.034 -4.214,-2.712 -8.702,-4.941 -12.765,-7.851 -0.047,-0.737 -0.274,-1.37 -0.661,-1.908 -7.474,-6.009 -16.468,-9.675 -24.235,-15.221 -2.834,-1.871 -6.444,-2.73 -8.475,-5.612 10.355,-0.775 20.777,0.331 31.122,-0.605 -0.501,-3.357 -0.822,-6.748 -0.765,-10.131 z"
   id="path138" />
	<path
   fill="#76d0ea"
   stroke="#76d0ea"
   stroke-width="0.5"
   d="m 984.083,1370.717 c 5.924,-1.191 11.81,-3.543 17.961,-2.797 7.577,6.123 16.024,11.073 23.923,16.78 16.619,11.149 32.899,22.798 49.669,33.74 0.529,0.453 1.049,0.945 1.568,1.464 -4.261,0.567 -7.37,3.751 -10.818,5.981 -51.011,34.949 -101.927,70.021 -152.919,104.969 -2.419,1.635 -5.272,2.967 -6.652,5.697 -2.523,1.058 -5.206,1.776 -7.955,1.653 l 0.491,-0.652 c 0.198,-0.312 0.605,-0.935 0.803,-1.247 6.822,-11.385 12.056,-23.639 18.414,-35.289 8.806,-17.857 18.093,-35.459 27.05,-53.24 6.784,-13.152 13.199,-26.483 19.992,-39.635 5.357,-9.855 10.176,-19.983 15.334,-29.941 1.259,-2.4 2.298,-4.913 3.139,-7.483 z"
   id="path140" />
	<path
   fill="#c9e8fa"
   stroke="#c9e8fa"
   stroke-width="0.5"
   d="m 579.256,1369.498 c 2.419,1.55 4.715,3.345 7.398,4.469 14.38,18.452 28.874,36.829 43.358,55.187 1.842,2.636 3.836,5.187 6.245,7.351 2.324,-0.728 4.771,-1.568 7.228,-0.926 6.198,1.191 12.292,3.912 18.726,2.939 15.712,-1.937 31.529,-2.901 47.25,-4.809 13.738,-0.916 27.381,-2.844 41.119,-3.675 2.031,-0.208 4.044,0.246 5.943,0.954 -6.85,5.329 -13.69,10.677 -20.559,15.986 -3.439,2.712 -7.341,4.96 -9.968,8.56 4.016,1.011 8.097,1.852 12.018,3.25 -4.271,3.109 -9.278,4.922 -13.813,7.578 -2.712,1.55 -5.574,2.816 -8.551,3.779 -0.047,-0.52 -0.161,-1.55 -0.208,-2.06 1.436,-6.302 3.76,-12.358 4.904,-18.717 -9.401,5.178 -18.046,11.612 -27.268,17.111 -30.177,19.246 -60.365,38.492 -90.57,57.7 -2.56,1.597 -5.055,3.297 -7.379,5.234 -0.973,-0.236 -1.946,-0.416 -2.91,-0.548 -1.002,-6.945 -3.071,-13.672 -4.223,-20.578 4.582,-5.471 8.277,-11.593 12.424,-17.375 7.152,-10.185 14.172,-20.465 21.296,-30.659 2.872,-4.327 6.311,-8.314 8.437,-13.086 -9.089,2.957 -17.507,7.644 -26.351,11.253 -3.997,1.427 -7.644,4.545 -12.056,4.337 0.35,-0.34 1.049,-1.011 1.398,-1.342 -5.367,-0.359 -10.743,-0.019 -16.119,0 -0.482,-14.645 -1.37,-29.261 -2.268,-43.878 -9.732,0.737 -19.454,1.484 -29.214,1.767 -9.439,0.491 -18.84,1.568 -28.288,1.757 -7.672,0.142 -15.353,1.436 -23.016,0.539 28.921,-16.402 58.532,-31.633 87.547,-47.884 -0.838,-1.417 -1.698,-2.825 -2.53,-4.214 z"
   id="path142" />
	<path
   fill="#b4e3f7"
   stroke="#b4e3f7"
   stroke-width="0.5"
   d="m 950.948,1376.594 c 11.017,-2.097 22.005,-4.469 33.135,-5.877 -0.841,2.57 -1.88,5.083 -3.137,7.483 -5.159,9.958 -9.977,20.087 -15.334,29.941 -6.793,13.152 -13.209,26.483 -19.992,39.635 -8.957,17.781 -18.244,35.384 -27.05,53.24 -6.359,11.65 -11.593,23.904 -18.414,35.289 -0.548,-26.786 -0.009,-53.571 -0.18,-80.357 -0.18,-21.636 0.331,-43.282 -0.255,-64.9 -0.709,-0.189 -2.126,-0.576 -2.825,-0.765 3.345,-2.419 6.803,-4.667 10.346,-6.784 5.896,0.425 11.716,-0.973 17.498,-1.975 8.682,-1.916 17.431,-3.494 26.208,-4.93 z"
   id="path144" />
	<path
   fill="#c9e8fa"
   stroke="#c9e8fa"
   stroke-width="0.5"
   d="m 848.861,1422.824 c 15.996,-10.865 32.001,-21.712 48.035,-32.54 0.699,0.189 2.116,0.576 2.825,0.765 0.586,21.617 0.076,43.263 0.255,64.9 0.17,26.786 -0.368,53.571 0.18,80.357 -0.198,0.312 -0.605,0.935 -0.803,1.247 -11.886,-12.604 -24.197,-24.792 -36.12,-37.339 -17.243,-17.47 -34.099,-35.308 -51.256,-52.853 12.611,-7.691 24.497,-16.497 36.884,-24.537 z"
   id="path146" />
	<path
   fill="#76d0ea"
   stroke="#76d0ea"
   stroke-width="0.5"
   d="m 545.545,1419.3 c 9.76,-0.283 19.482,-1.03 29.214,-1.767 0.898,14.616 1.786,29.233 2.268,43.878 5.376,-0.019 10.752,-0.359 16.119,0 -0.35,0.331 -1.049,1.001 -1.398,1.342 -10.327,-1.219 -20.729,-0.028 -31.085,0.151 -12.226,1.096 -24.509,1.455 -36.744,2.334 -13.303,1.19 -26.682,1.068 -39.966,2.447 -8.57,0.898 -17.347,-0.047 -25.812,1.625 -1.946,2.154 -1.597,5.697 -2.334,8.475 -3.496,-0.274 -7.001,-0.123 -10.487,-0.123 11.735,-13.804 23.8,-27.324 35.61,-41.062 3.732,-4.422 7.833,-8.57 10.941,-13.473 0.454,-0.888 1.285,-1.757 2.371,-1.531 7.662,0.897 15.344,-0.397 23.016,-0.539 9.448,-0.189 18.849,-1.266 28.287,-1.757 z"
   id="path148" />
	<path
   fill="#02b3e5"
   stroke="#02b3e5"
   stroke-width="0.5"
   d="m 1066.386,1425.885 c 3.449,-2.23 6.557,-5.414 10.818,-5.981 16.978,17.337 34.297,34.344 51.549,51.398 -0.671,0.406 -1.342,0.822 -1.984,1.257 -5.971,2.74 -12.547,3.987 -18.707,6.264 -40.599,13.001 -81.255,25.841 -121.835,38.898 -8.22,2.891 -16.846,4.29 -25.246,6.51 -18.084,4.006 -36.035,8.626 -54.167,12.32 1.379,-2.731 4.233,-4.063 6.652,-5.697 50.993,-34.948 101.91,-70.02 152.92,-104.969 z"
   id="path150" />
	<path
   fill="#0198b7"
   stroke="#0198b7"
   stroke-width="0.5"
   d="m 477.31,1426.367 c 4.837,-1.124 9.864,-1.521 14.56,-3.241 -3.108,4.904 -7.209,9.051 -10.941,13.473 -11.81,13.738 -23.876,27.258 -35.61,41.062 -10.346,0.17 -20.682,-0.265 -31.018,-0.784 -13.237,-0.038 -26.446,-1.134 -39.682,-1.049 -11.952,-0.416 -23.951,0.255 -35.865,-0.917 -7.256,-0.548 -14.522,0.057 -21.778,0.066 -5.385,0.019 -10.686,-1.153 -16.062,-1.096 -7.568,0.038 -15.155,0.576 -22.713,-0.057 -10.667,-1.304 -21.428,-0.161 -32.133,-0.595 -2.23,-0.151 -4.393,-0.746 -6.557,-1.238 -4.195,-1.313 -8.617,-0.094 -12.868,-0.935 -0.038,-3.779 -0.208,-7.558 -0.189,-11.328 5.215,-1.068 10.582,-0.841 15.835,-1.606 6.774,-1.105 13.653,-1.049 20.474,-1.691 16.128,-1.946 32.37,-2.816 48.498,-4.771 10.61,-0.397 21.088,-2.211 31.689,-2.646 10.95,-1.89 22.147,-1.209 33.097,-3.071 6.765,-0.321 13.341,-1.937 19.945,-3.316 20.351,-3.883 40.618,-8.144 60.969,-12.046 6.895,-0.869 13.433,-3.42 20.349,-4.214 z"
   id="path152" />
	<path
   fill="#02b3e5"
   stroke="#02b3e5"
   stroke-width="0.5"
   d="m 808.375,1444.715 c 1.209,0.85 2.428,1.701 3.6,2.646 17.158,17.545 34.013,35.384 51.256,52.853 11.924,12.547 24.235,24.735 36.12,37.339 l -0.491,0.652 c -15.353,3.269 -30.839,5.962 -46.239,9.08 -6.576,0.964 -13.048,2.976 -19.756,2.693 -10.336,-0.387 -20.682,0.18 -31,-0.501 0.425,-22.969 1.672,-45.899 2.116,-68.868 0.151,-7.937 0.737,-15.854 0.954,-23.781 0.417,-4.224 -0.519,-9.297 3.44,-12.113 z"
   id="path154" />
	<path
   fill="#02b3e5"
   stroke="#02b3e5"
   stroke-width="0.5"
   d="m 603.803,1458.415 c 8.844,-3.609 17.262,-8.296 26.351,-11.253 -2.126,4.771 -5.565,8.759 -8.437,13.086 -7.124,10.194 -14.144,20.474 -21.296,30.659 -4.148,5.782 -7.842,11.905 -12.424,17.375 -2.778,-10.752 -4.828,-21.684 -7.691,-32.407 -6.207,5.008 -10.667,11.735 -16.516,17.13 -7.313,6.888 -13.549,14.786 -20.767,21.759 -4.46,4.365 -8.352,9.269 -12.727,13.719 -1.389,1.502 -3.382,2.192 -5.395,2.23 -4.507,0.274 -9.108,-0.284 -13.501,0.973 -4.941,1.172 -10.072,0.803 -15.07,1.606 -5.291,0.898 -10.658,0.992 -15.977,1.606 -6.519,0.954 -13.114,1.549 -19.699,1.616 -1.635,-0.17 -3.26,-0.387 -4.875,-0.567 2.608,-9.061 5.99,-17.885 8.768,-26.89 2.154,-10.166 6.944,-19.699 8.154,-30.055 -5.622,-0.633 -11.319,-0.123 -16.893,-1.219 0.737,-2.778 0.387,-6.321 2.334,-8.475 8.466,-1.672 17.243,-0.728 25.812,-1.625 13.284,-1.38 26.663,-1.257 39.966,-2.447 12.235,-0.879 24.518,-1.238 36.744,-2.334 10.355,-0.179 20.758,-1.37 31.085,-0.151 4.41,0.209 8.057,-2.909 12.054,-4.336 z"
   id="path156" />
	<path
   fill="#02b3e5"
   stroke="#02b3e5"
   stroke-width="0.5"
   d="m 693.079,1466.474 c 9.221,-5.499 17.867,-11.933 27.268,-17.111 -1.143,6.359 -3.467,12.415 -4.904,18.717 -3.93,14.645 -7.965,29.271 -11.735,43.963 -2.485,9.354 -5.282,18.632 -7.275,28.118 -0.444,1.776 -1.209,3.468 -1.823,5.215 -1.531,0.113 -3.052,0.293 -4.564,0.35 -0.368,-0.038 -1.105,-0.094 -1.483,-0.123 -5.14,-0.794 -10.384,-0.132 -15.504,-1.068 -4.582,-0.803 -9.278,-0.34 -13.86,-1.02 -3.921,-1.011 -8.04,-0.917 -11.914,-1.956 -0.265,-0.34 -0.784,-1.011 -1.049,-1.342 0.586,-0.076 1.767,-0.236 2.362,-0.312 2.466,-0.028 4.337,-1.653 5.924,-3.335 -1.927,-0.17 -3.845,-0.265 -5.763,-0.274 -2.863,-0.019 -5.735,-0.18 -8.494,-0.917 -4.734,-1.294 -9.741,-0.567 -14.475,-1.814 -5.178,-1.521 -10.705,-0.605 -15.901,-2.05 -4.819,-1.37 -9.996,-0.444 -14.758,-2.107 2.324,-1.937 4.819,-3.637 7.379,-5.234 30.204,-19.208 60.391,-38.454 90.569,-57.7 z"
   id="path158" />
	<path
   fill="#b4e3f7"
   stroke="#b4e3f7"
   stroke-width="0.5"
   d="m 788.799,1461.958 c 5.225,-4.261 9.845,-9.287 15.561,-12.916 0.227,2.579 0.435,5.178 0.576,7.785 -0.217,7.927 -0.803,15.844 -0.954,23.781 -0.444,22.969 -1.691,45.899 -2.116,68.868 l -0.009,0.794 c -34.221,-3.685 -68.499,-6.822 -102.73,-10.459 2.542,-3.836 6.349,-6.463 9.76,-9.439 10.459,-9.401 21.381,-18.263 32.058,-27.409 15.947,-13.681 31.735,-27.522 47.854,-41.005 z"
   id="path160" />
	<path
   fill="#00afd8"
   stroke="#00afd8"
   stroke-width="0.5"
   d="m 226.366,1472.937 c 4.148,-1.691 8.787,-1.54 13.142,-0.945 2.164,0.491 4.327,1.087 6.557,1.238 10.705,0.435 21.466,-0.709 32.133,0.595 7.559,0.633 15.145,0.094 22.713,0.057 5.376,-0.057 10.676,1.115 16.062,1.096 7.256,-0.01 14.522,-0.614 21.778,-0.066 11.914,1.172 23.913,0.501 35.865,0.917 13.237,-0.085 26.445,1.011 39.682,1.049 10.336,0.52 20.673,0.954 31.018,0.784 3.486,0 6.992,-0.151 10.487,0.123 5.574,1.096 11.272,0.586 16.893,1.219 -1.209,10.355 -6,19.888 -8.154,30.055 -2.778,9.004 -6.16,17.829 -8.768,26.89 1.616,0.179 3.241,0.397 4.875,0.567 -6.104,2.164 -12.594,1.927 -18.963,1.852 -16.345,0.472 -32.719,-0.189 -49.055,0.444 -27.428,-0.161 -54.856,0.028 -82.275,-0.028 -21.731,-0.132 -43.462,0.444 -65.193,0.435 -4.384,0.104 -8.815,0.17 -13.114,-0.85 -5.357,-7.237 -11.943,-13.511 -17.148,-20.843 -2.768,-7.804 -5.045,-15.788 -7.681,-23.639 -1.275,-4.346 -3.231,-8.532 -3.562,-13.086 7.601,-2.526 15.159,-5.2 22.708,-7.864 z"
   id="path162" />
	<path
   fill="#0198b7"
   stroke="#0198b7"
   stroke-width="0.5"
   d="m 563.79,1493.005 c 5.848,-5.395 10.308,-12.122 16.516,-17.13 2.863,10.724 4.913,21.655 7.691,32.407 1.153,6.907 3.222,13.634 4.223,20.578 -4.176,-0.369 -8.475,-0.69 -12.519,0.595 -4.412,1.351 -9.127,0.718 -13.549,1.956 -3.893,1.162 -8.021,1.02 -11.924,2.098 -3.061,0.775 -6.207,1.001 -9.325,1.361 -11.291,0.179 -22.203,-3.572 -33.503,-3.184 4.393,-1.257 8.995,-0.699 13.501,-0.973 2.013,-0.038 4.006,-0.728 5.395,-2.23 4.374,-4.45 8.267,-9.354 12.727,-13.719 7.218,-6.973 13.454,-14.871 20.767,-21.759 z"
   id="path164" />
	<path
   fill="#f04d24"
   stroke="#f04d24"
   stroke-width="0.5"
   d="m 579.701,1529.456 c 4.044,-1.285 8.343,-0.964 12.519,-0.595 0.964,0.132 1.937,0.312 2.91,0.548 4.762,1.663 9.939,0.737 14.758,2.107 5.197,1.446 10.724,0.529 15.901,2.05 4.734,1.247 9.741,0.52 14.475,1.814 2.759,0.737 5.631,0.898 8.494,0.917 -0.057,1.181 -0.113,2.39 -0.161,3.609 -0.595,0.076 -1.776,0.236 -2.362,0.312 -1.918,0.217 -3.675,1.011 -5.442,1.71 -3.675,1.408 -7.521,2.249 -11.243,3.496 -4.932,1.455 -9.798,3.553 -15.004,3.666 -6.274,0.18 -12.528,0.888 -18.802,0.661 -11.045,-0.586 -22.109,-0.132 -33.163,-0.605 -9.458,-0.406 -18.915,-0.831 -28.382,-1.115 -2.4,-0.151 -5.036,0.038 -6.973,-1.606 5.754,-4.044 11.385,-8.371 17.678,-11.555 3.118,-0.359 6.264,-0.586 9.325,-1.361 3.902,-1.077 8.031,-0.935 11.924,-2.098 4.421,-1.237 9.135,-0.604 13.548,-1.955 z"
   id="path166" />
	<path
   fill="#877b76"
   stroke="#877b76"
   stroke-width="0.5"
   d="m 648.757,1536.297 c 1.918,0.01 3.836,0.104 5.763,0.274 -1.587,1.682 -3.458,3.307 -5.924,3.335 0.048,-1.219 0.105,-2.428 0.161,-3.609 z"
   id="path168" />
	<path
   fill="#0198b7"
   stroke="#0198b7"
   stroke-width="0.5"
   d="m 232.054,1538.366 c 4.299,1.021 8.73,0.954 13.114,0.85 21.731,0.01 43.462,-0.567 65.193,-0.435 27.419,0.057 54.847,-0.132 82.275,0.028 -2.135,1.861 -4.913,2.542 -7.577,3.25 -38.832,11.81 -77.655,23.545 -116.458,35.421 -3.071,0.879 -6.056,2.154 -9.25,2.532 -1.257,-0.265 -1.918,-1.474 -2.768,-2.268 -5.442,-6.151 -10.469,-12.746 -16.421,-18.396 -4.885,-0.86 -9.883,-1.011 -14.673,-2.371 1.361,-5.215 2.759,-10.431 4.091,-15.646 0.197,-1.425 1.511,-2.124 2.474,-2.965 z"
   id="path170" />
	<path
   fill="#2b889f"
   stroke="#2b889f"
   stroke-width="0.5"
   d="m 640.793,1541.928 c 1.767,-0.699 3.524,-1.493 5.442,-1.71 0.265,0.331 0.784,1.002 1.049,1.342 3.874,1.039 7.993,0.945 11.914,1.956 -6.142,0.245 -12.463,0.112 -18.405,-1.588 z"
   id="path172" />
	<path
   fill="#ae3c24"
   stroke="#ae3c24"
   stroke-width="0.5"
   d="m 522.048,1547.757 c 1.823,0.085 3.524,-0.643 5.178,-1.332 1.937,1.644 4.573,1.455 6.973,1.606 9.467,0.283 18.925,0.709 28.382,1.115 11.054,0.472 22.118,0.019 33.163,0.605 -15.382,11.631 -30.848,23.167 -46.079,34.996 -4.129,2.853 -7.823,6.954 -13.057,7.568 -4.913,0.69 -9.694,2.06 -14.626,2.551 -4.611,0.501 -9.061,2.06 -13.728,2.135 -1.568,-13.586 0.709,-27.39 -1.521,-40.901 -0.831,-2.995 -2.447,-5.669 -3.666,-8.484 6.32,-0.426 12.65,0.113 18.981,0.141 z"
   id="path174" />
	<path
   fill="#6fa6b3"
   stroke="#6fa6b3"
   stroke-width="0.5"
   d="m 688.563,1545.603 c 0.378,0.028 1.115,0.085 1.483,0.123 1.172,2.107 -3.203,1.757 -1.483,-0.123 z"
   id="path176" />
	<path
   fill="#a45826"
   stroke="#a45826"
   stroke-width="0.5"
   d="m 404.153,1572.644 c 21.145,-5.102 42.016,-11.272 63.123,-16.468 9.061,-0.916 18.216,-0.094 27.324,-0.369 4.034,-0.028 8.097,-0.17 12.132,0.293 2.23,13.511 -0.047,27.315 1.521,40.901 0.302,0.935 -1.124,0.765 -1.635,1.162 -4.214,-2.419 -9.306,-1.275 -13.889,-2.343 -6.585,-1.389 -13.501,-0.217 -19.926,-2.4 0.17,-0.312 0.501,-0.935 0.671,-1.247 -17.252,-1.833 -34.41,-4.63 -51.616,-6.878 -6.595,-0.661 -13.124,0.926 -19.718,0.775 0.388,-4.526 1.049,-9.004 2.013,-13.426 z"
   id="path178" />
	<path
   fill="#f04d24"
   stroke="#f04d24"
   stroke-width="0.5"
   d="m 419.45,1587.808 c 5.452,-1.124 10.988,1.276 16.506,1.257 12.283,1.436 24.669,2.39 36.848,4.356 6.425,2.183 13.341,1.011 19.926,2.4 4.582,1.068 9.675,-0.076 13.889,2.343 -8.645,4.904 -17.328,9.722 -25.897,14.73 -4.356,1.191 -8.995,0.822 -13.454,1.446 -8.201,1.162 -16.515,1.313 -24.688,2.712 -7.237,0.378 -14.418,1.209 -21.599,2.088 -9.845,0.34 -19.539,2.532 -29.393,2.409 -5.933,-1.739 -11.196,-5.386 -17.29,-6.765 -0.113,-0.435 -0.34,-1.294 -0.454,-1.729 15.239,-8.354 30.394,-16.866 45.606,-25.247 z"
   id="path180" />
</g>
</svg>
